<svg xmlns="http://www.w3.org/2000/svg">
  <symbol id="python" viewBox="0 0 24 24">
    <path
          d="M14.25.18l.9.2.73.26.59.3.45.32.34.34.25.34.16.33.1.3.04.26.02.2-.01.13V8.5l-.05.63-.13.55-.21.46-.26.38-.3.31-.33.25-.35.19-.35.14-.33.1-.3.07-.26.04-.21.02H8.77l-.69.05-.59.14-.5.22-.41.27-.33.32-.27.35-.2.36-.15.37-.1.35-.07.32-.04.27-.02.21v3.06H3.17l-.21-.03-.28-.07-.32-.12-.35-.18-.36-.26-.36-.36-.35-.46-.32-.59-.28-.73-.21-.88-.14-1.05-.05-1.23.06-1.22.16-1.04.24-.87.32-.71.36-.57.4-.44.42-.33.42-.24.4-.16.36-.1.32-.05.24-.01h.16l.06.01h8.16v-.83H6.18l-.01-2.75-.02-.37.05-.34.11-.31.17-.28.25-.26.31-.23.38-.2.44-.18.51-.15.58-.12.64-.1.71-.06.77-.04.84-.02 1.27.05zm-6.3 1.98l-.23.33-.08.41.08.41.23.34.33.22.41.09.41-.09.33-.22.23-.34.08-.41-.08-.41-.23-.33-.33-.22-.41-.09-.41.09zm13.09 3.95l.28.06.32.12.35.18.36.27.36.35.35.47.32.59.28.73.21.88.14 1.04.05 1.23-.06 1.23-.16 1.04-.24.86-.32.71-.36.57-.4.45-.42.33-.42.24-.4.16-.36.09-.32.05-.24.02-.16-.01h-8.22v.82h5.84l.01 2.76.02.36-.05.34-.11.31-.17.29-.25.25-.31.24-.38.2-.44.17-.51.15-.58.13-.64.09-.71.07-.77.04-.84.01-1.27-.04-1.07-.14-.9-.2-.73-.25-.59-.3-.45-.33-.34-.34-.25-.34-.16-.33-.1-.3-.04-.25-.02-.2.01-.13v-5.34l.05-.64.13-.54.21-.46.26-.38.3-.32.33-.24.35-.2.35-.14.33-.1.3-.06.26-.04.21-.02.13-.01h5.84l.69-.05.59-.14.5-.21.41-.28.33-.32.27-.35.2-.36.15-.36.1-.35.07-.32.04-.28.02-.21V6.07h2.09l.14.01zm-6.47 14.25l-.23.33-.08.41.08.41.23.33.33.23.41.08.41-.08.33-.23.23-.33.08-.41-.08-.41-.23-.33-.33-.23-.41-.08-.41.08z"
          fill="currentColor"
        />
  </symbol>
  <symbol id="tensorflow" viewBox="0 0 24 24">
    <path
          d="M1.292 5.856L11.54 0v24l-4.095-2.378V7.603l-6.168 3.564.015-5.31zm21.43 5.311l-.014-5.31L12.46 0v24l4.095-2.378V14.87l3.092 1.788-.018-4.618-3.074-1.756V7.603l6.168 3.564z"
          fill="currentColor"
        />
  </symbol>
  <symbol id="pytorch" viewBox="0 0 24 24">
    <path
          d="M12.005 0L4.952 7.053a9.865 9.865 0 000 14.022 9.866 9.866 0 0014.022 0c3.984-3.9 3.986-10.205.085-14.023l-1.744 1.743c2.904 2.905 2.904 7.634 0 10.538s-7.634 2.904-10.538 0-2.904-7.634 0-10.538l4.647-4.646.582-.665zm3.568 3.899a1.327 1.327 0 00-1.327 1.327 1.327 1.327 0 001.327 1.328A1.327 1.327 0 0016.9 5.226 1.327 1.327 0 0015.573 3.9z"
          fill="currentColor"
        />
  </symbol>
  <symbol id="keras" viewBox="0 0 24 24">
    <path
          d="M24 0H0v24h24V0zM8.45 5.16l.2.17v6.24l6.46-6.45h1.96l.2.4-5.14 5.1 5.47 7.94-.2.3h-1.94l-4.65-6.88-2.16 2.08v4.6l-.19.2H7l-.2-.2V5.33l.17-.17h1.48z"
          fill="currentColor"
        />
  </symbol>
  <symbol id="scikitlearn" viewBox="0 0 24 24">
    <path
          d="M15.601 5.53c-1.91.035-3.981.91-5.63 2.56-2.93 2.93-2.083 8.53-1.088 9.525.805.804 6.595 1.843 9.526-1.088a9.74 9.74 0 0 0 .584-.643c.043-.292.205-.66.489-1.106a1.848 1.848 0 0 1-.537.176c-.144.265-.37.55-.676.855-.354.335-.607.554-.76.656a.795.795 0 0 1-.437.152c-.35 0-.514-.308-.494-.924-.22.316-.425.549-.612.7a.914.914 0 0 1-.578.224c-.194 0-.36-.09-.496-.273a1.03 1.03 0 0 1-.193-.507 4.016 4.016 0 0 1-.726.583c-.224.132-.47.197-.74.197-.3 0-.543-.096-.727-.288a.978.978 0 0 1-.257-.524v.004c-.3.276-.564.48-.79.611a1.295 1.295 0 0 1-.649.197.693.693 0 0 1-.571-.275c-.145-.183-.218-.43-.218-.739 0-.464.101-1.02.302-1.67.201-.65.445-1.25.733-1.797l.842-.312a.21.21 0 0 1 .06-.013c.063 0 .116.047.157.14.04.095.061.221.061.38 0 .451-.104.888-.312 1.31-.207.422-.532.873-.974 1.352-.018.23-.027.388-.027.474 0 .193.036.345.106.458.071.113.165.169.282.169a.71.71 0 0 0 .382-.13c.132-.084.333-.26.602-.523.028-.418.187-.798.482-1.142.324-.38.685-.569 1.08-.569.206 0 .37.054.494.16a.524.524 0 0 1 .186.417c0 .458-.486.829-1.459 1.114.088.43.32.646.693.646a.807.807 0 0 0 .417-.117c.129-.076.321-.243.575-.497.032-.252.118-.495.259-.728.182-.3.416-.544.701-.73.285-.185.537-.278.756-.278.276 0 .47.127.58.381l.677-.374h.186l-.292.971c-.15.488-.226.823-.226 1.004 0 .19.067.285.202.285.086 0 .181-.045.285-.137.104-.092.25-.232.437-.42v.001c.143-.155.274-.32.392-.494-.19-.084-.285-.21-.285-.375 0-.17.058-.352.174-.545.116-.194.275-.29.479-.29.172 0 .258.088.258.265 0 .139-.05.338-.149.596.367-.04.687-.32.961-.842l.228-.01c1.059-2.438.828-5.075-.83-6.732-1.019-1.02-2.408-1.5-3.895-1.471zm4.725 8.203a8.938 8.938 0 0 1-1.333 2.151 1.09 1.09 0 0 0-.012.147c0 .168.047.309.14.423.092.113.206.17.34.17.296 0 .714-.264 1.254-.787-.001.04-.003.08-.003.121 0 .146.012.368.036.666l.733-.172c0-.2.003-.357.01-.474.01-.157.033-.33.066-.517.02-.11.07-.216.152-.315l.186-.216a5.276 5.276 0 0 1 .378-.397c.062-.055.116-.099.162-.13a.26.26 0 0 1 .123-.046c.055 0 .083.035.083.106 0 .07-.052.236-.156.497-.194.486-.292.848-.292 1.084 0 .175.046.314.136.418a.45.45 0 0 0 .358.155c.365 0 .803-.269 1.313-.808v-.381c-.361.426-.623.64-.784.64-.109 0-.163-.067-.163-.2 0-.1.065-.316.195-.65.19-.486.285-.836.285-1.048a.464.464 0 0 0-.112-.319.36.36 0 0 0-.282-.127c-.165 0-.354.077-.567.233-.213.156-.5.436-.863.84.053-.262.165-.622.335-1.08l-.809.156a6.54 6.54 0 0 0-.399 1.074c-.04.156-.07.316-.092.48a7.447 7.447 0 0 1-.49.45.38.38 0 0 1-.229.08.208.208 0 0 1-.174-.082.352.352 0 0 1-.064-.222c0-.1.019-.214.056-.343.038-.13.12-.373.249-.731l.308-.849zm-17.21-2.927c-.863-.016-1.67.263-2.261.854-1.352 1.352-1.07 3.827.631 5.527 1.7 1.701 4.95 1.21 5.527.632.467-.466 1.07-3.827-.631-5.527-.957-.957-2.158-1.465-3.267-1.486z"
          fill="currentColor"
        />
  </symbol>
  <symbol id="opencv" viewBox="0 0 24 24">
    <path
          d="M11.8992.8525C8.735.8525 6.17 3.4175 6.17 6.5817c0 2.102 1.1321 3.9398 2.8198 4.9366l1.6412-2.7849c.0411-.0699.0176-.1593-.0495-.2048-.6233-.4227-1.0328-1.137-1.0328-1.947 0-1.298 1.0524-2.3504 2.3505-2.3504 1.2981 0 2.3505 1.0524 2.3505 2.3505 0 .8098-.4095 1.5242-1.0328 1.947-.0671.0454-.0907.1348-.0495.2047l1.6414 2.785c1.6878-.9969 2.8199-2.8346 2.8199-4.9367 0-3.1642-2.5653-5.7292-5.7295-5.7292zm-6.17 10.8366C2.565 11.6891 0 14.2541 0 17.4183c0 3.1642 2.565 5.7292 5.7292 5.7292 3.1798 0 5.8074-2.6995 5.7275-5.8762H8.2313c-.0847 0-.1513.0717-.1519.1564-.0082 1.266-1.0644 2.3411-2.3502 2.3411-1.2981 0-2.3505-1.0524-2.3505-2.3505 0-1.2982 1.0524-2.3505 2.3505-2.3505.34 0 .663.0724.9547.2022.0713.0318.1566.0077.1962-.0595l1.6464-2.7935c-.8273-.4636-1.7815-.7279-2.7973-.7279zm15.4424.7614l-1.6366 2.7878c-.041.07-.0172.1594.05.2048.624.4217 1.0348 1.1354 1.0363 1.9452.0022 1.298-1.0483 2.352-2.3465 2.3542-1.298.0023-2.3523-1.0482-2.3545-2.3462-.0015-.8098.4068-1.5248 1.0294-1.9486.067-.0457.0905-.1353.0492-.2051l-1.6464-2.7818c-1.6859.9998-2.8146 2.8394-2.811 4.9415.0056 3.1641 2.575 5.7248 5.7393 5.7192 3.1641-.0054 5.7246-2.575 5.7192-5.7392-.0037-2.1022-1.139-3.938-2.8284-4.9318z"
          fill="currentColor"
        />
  </symbol>
  <symbol id="pandas" viewBox="0 0 24 24">
    <path
          d="M16.922 0h2.623v18.104h-2.623zm-4.126 12.94h2.623v2.57h-2.623zm0-7.037h2.623v5.446h-2.623zm0 11.197h2.623v5.446h-2.623zM4.456 5.896h2.622V24H4.455zm4.213 2.559h2.623v2.57H8.67zm0 4.151h2.623v5.447H8.67zm0-11.187h2.623v5.446H8.67Z"
          fill="currentColor"
        />
  </symbol>
  <symbol id="numpy" viewBox="0 0 24 24">
    <path
          d="M10.315 4.876L6.3048 2.8517l-4.401 2.1965 4.1186 2.0683zm1.8381.9277l4.2045 2.1223-4.3622 2.1906-4.125-2.0718zm5.6153-2.9213l4.3193 2.1658-3.863 1.9402-4.2131-2.1252zm-1.859-.9329L12.021 0 8.1742 1.9193l4.0068 2.0208zm-3.0401 16.7443V24l4.7107-2.3507-.0053-5.3085zm4.7037-4.2057l-.0052-5.2528-4.6985 2.3356v5.2546zm5.6553-.9845v5.327l-4.0178 2.0052-.0029-5.3028zm0-1.8626V6.4214l-4.0253 2.001.0034 5.2633zM11.2062 11.571L8.0333 9.9756v6.895s-3.8804-8.2564-4.2399-8.998c-.0463-.0957-.2371-.2007-.2858-.2262C2.8118 7.2812.773 6.2485.773 6.2485V18.43l2.8204 1.5076v-6.3674s3.8392 7.3775 3.878 7.458c.0389.0807.4245.8582.8362 1.1314.5485.363 2.8992 1.7766 2.8992 1.7766z"
          fill="currentColor"
        />
  </symbol>
  <symbol id="plotly" viewBox="0 0 24 24">
    <path
          d="M1.713.002A1.713 1.713 0 0 0 0 1.715a1.713 1.713 0 0 0 1.713 1.713 1.713 1.713 0 0 0 1.714-1.713A1.713 1.713 0 0 0 1.713.002Zm6.861 0a1.713 1.713 0 0 0-1.713 1.713 1.713 1.713 0 0 0 1.713 1.713 1.713 1.713 0 0 0 1.713-1.713A1.713 1.713 0 0 0 8.574.002Zm6.857 0a1.713 1.713 0 0 0-1.714 1.713 1.713 1.713 0 0 0 1.714 1.713 1.713 1.713 0 0 0 1.713-1.713A1.713 1.713 0 0 0 15.431.002zm6.856 0a1.713 1.713 0 0 0-1.713 1.713 1.713 1.713 0 0 0 1.713 1.713A1.713 1.713 0 0 0 24 1.715 1.713 1.713 0 0 0 22.287.002ZM1.713 6.859A1.713 1.713 0 0 0 0 8.572a1.713 1.713 0 0 0 1.713 1.713 1.713 1.713 0 0 0 1.714-1.713A1.713 1.713 0 0 0 1.713 6.86Zm6.861 0c-.948 0-1.713.765-1.713 1.713v13.713c0 .947.765 1.713 1.713 1.713.948 0 1.713-.766 1.713-1.713V8.572c0-.948-.765-1.713-1.713-1.713zm6.857 0a1.713 1.713 0 0 0-1.714 1.713 1.713 1.713 0 0 0 1.714 1.713 1.713 1.713 0 0 0 1.713-1.713 1.713 1.713 0 0 0-1.713-1.713zm6.856 0c-.947 0-1.713.765-1.713 1.713v13.713c0 .947.766 1.713 1.713 1.713.948 0 1.713-.766 1.713-1.713V8.572c0-.948-.765-1.713-1.713-1.713ZM1.713 13.715C.766 13.715 0 14.48 0 15.428v6.857c0 .947.766 1.713 1.713 1.713.948 0 1.714-.766 1.714-1.713v-6.857c0-.948-.766-1.713-1.714-1.713zm13.718 0c-.948 0-1.714.765-1.714 1.713v6.857c0 .947.766 1.713 1.714 1.713.947 0 1.713-.766 1.713-1.713v-6.857c0-.948-.766-1.713-1.713-1.713z"
          fill="currentColor"
        />
  </symbol>
  <symbol id="mlflow" viewBox="0 0 24 24">
    <path
          d="M11.883.002a12.044 12.044 0 0 0-9.326 19.463l3.668-2.694A7.573 7.573 0 0 1 12.043 4.45v2.867l6.908-5.14A12.012 12.012 0 0 0 11.883.002zm9.562 4.533L17.777 7.23a7.573 7.573 0 0 1-5.818 12.322v-2.867l-6.908 5.14a12.046 12.046 0 0 0 16.394-17.29z"
          fill="currentColor"
        />
  </symbol>
  <symbol id="streamlit" viewBox="0 0 24 24">
    <path
          d="M16.673 11.32l6.862-3.618c.233-.136.554.12.442.387L20.463 17.1zm-8.556-.229l3.473-5.187c.203-.328.578-.316.793-.028l7.886 11.75zm-3.375 7.25c-.28 0-.835-.284-.993-.716l-3.72-9.46c-.118-.331.139-.614.48-.464l19.474 10.306c-.149.147-.453.337-.72.334z"
          fill="currentColor"
        />
  </symbol>
  <symbol id="huggingface" viewBox="0 0 24 24">
    <path
        d="M12.025 1.13c-5.77 0-10.449 4.647-10.449 10.378 0 1.112.178 2.181.503 3.185.064-.222.203-.444.416-.577a.96.96 0 0 1 .524-.15c.293 0 .584.124.84.284.278.173.48.408.71.694.226.282.458.611.684.951v-.014c.017-.324.106-.622.264-.874s.403-.487.762-.543c.3-.047.596.06.787.203s.31.313.4.467c.15.257.212.468.233.542.01.026.653 1.552 1.657 2.54.616.605 1.01 1.223 1.082 1.912.055.537-.096 1.059-.38 1.572.637.121 1.294.187 1.967.187.657 0 1.298-.063 1.921-.178-.287-.517-.44-1.041-.384-1.581.07-.69.465-1.307 1.081-1.913 1.004-.987 1.647-2.513 1.657-2.539.021-.074.083-.285.233-.542.09-.154.208-.323.4-.467a1.08 1.08 0 0 1 .787-.203c.359.056.604.29.762.543s.247.55.265.874v.015c.225-.34.457-.67.683-.952.23-.286.432-.52.71-.694.257-.16.547-.284.84-.285a.97.97 0 0 1 .524.151c.228.143.373.388.43.625l.006.04a10.3 10.3 0 0 0 .534-3.273c0-5.731-4.678-10.378-10.449-10.378M8.327 6.583a1.5 1.5 0 0 1 .713.174 1.487 1.487 0 0 1 .617 2.013c-.183.343-.762-.214-1.102-.094-.38.134-.532.914-.917.71a1.487 1.487 0 0 1 .69-2.803m7.486 0a1.487 1.487 0 0 1 .689 2.803c-.385.204-.536-.576-.916-.71-.34-.12-.92.437-1.103.094a1.487 1.487 0 0 1 .617-2.013 1.5 1.5 0 0 1 .713-.174m-10.68 1.55a.96.96 0 1 1 0 1.921.96.96 0 0 1 0-1.92m13.838 0a.96.96 0 1 1 0 1.92.96.96 0 0 1 0-1.92M8.489 11.458c.588.01 1.965 1.157 3.572 1.164 1.607-.007 2.984-1.155 3.572-1.164.196-.003.305.12.305.454 0 .886-.424 2.328-1.563 3.202-.22-.756-1.396-1.366-1.63-1.32q-.011.001-.02.006l-.044.026-.01.008-.03.024q-.018.017-.035.036l-.032.04a1 1 0 0 0-.058.09l-.014.025q-.049.088-.11.19a1 1 0 0 1-.083.116 1.2 1.2 0 0 1-.173.18q-.035.029-.075.058a1.3 1.3 0 0 1-.251-.243 1 1 0 0 1-.076-.107c-.124-.193-.177-.363-.337-.444-.034-.016-.104-.008-.2.022q-.094.03-.216.087-.06.028-.125.063l-.13.074q-.067.04-.136.086a3 3 0 0 0-.135.096 3 3 0 0 0-.26.219 2 2 0 0 0-.12.121 2 2 0 0 0-.106.128l-.002.002a2 2 0 0 0-.09.132l-.001.001a1.2 1.2 0 0 0-.105.212q-.013.036-.024.073c-1.139-.875-1.563-2.317-1.563-3.203 0-.334.109-.457.305-.454m.836 10.354c.824-1.19.766-2.082-.365-3.194-1.13-1.112-1.789-2.738-1.789-2.738s-.246-.945-.806-.858-.97 1.499.202 2.362c1.173.864-.233 1.45-.685.64-.45-.812-1.683-2.896-2.322-3.295s-1.089-.175-.938.647 2.822 2.813 2.562 3.244-1.176-.506-1.176-.506-2.866-2.567-3.49-1.898.473 1.23 2.037 2.16c1.564.932 1.686 1.178 1.464 1.53s-3.675-2.511-4-1.297c-.323 1.214 3.524 1.567 3.287 2.405-.238.839-2.71-1.587-3.216-.642-.506.946 3.49 2.056 3.522 2.064 1.29.33 4.568 1.028 5.713-.624m5.349 0c-.824-1.19-.766-2.082.365-3.194 1.13-1.112 1.789-2.738 1.789-2.738s.246-.945.806-.858.97 1.499-.202 2.362c-1.173.864.233 1.45.685.64.451-.812 1.683-2.896 2.322-3.295s1.089-.175.938.647-2.822 2.813-2.562 3.244 1.176-.506 1.176-.506 2.866-2.567 3.49-1.898-.473 1.23-2.037 2.16c-1.564.932-1.686 1.178-1.464 1.53s3.675-2.511 4-1.297c.323 1.214-3.524 1.567-3.287 2.405.238.839 2.71-1.587 3.216-.642.506.946-3.49 2.056-3.522 2.064-1.29.33-4.568 1.028-5.713-.624"
        fill="currentColor"
      />
  </symbol>
  <symbol id="langchain" viewBox="0 0 24 24">
    <path
          d="M13.796 0a6.93 6.93 0 0 0-4.91 2.019L5.451 5.455l3.273 3.27 3.432-3.432a2.284 2.284 0 0 1 3.277 0 2.28 2.28 0 0 1 0 3.275L12 12.001l3.273 3.273 3.433-3.435c2.692-2.692 2.692-7.127 0-9.82A6.92 6.92 0 0 0 13.796 0m-5.07 8.728-3.433 3.434c-2.692 2.693-2.692 7.126 0 9.819A6.92 6.92 0 0 0 10.203 24a6.93 6.93 0 0 0 4.911-2.02l3.432-3.432-3.271-3.272-3.433 3.433a2.284 2.284 0 0 1-3.277 0 2.28 2.28 0 0 1 0-3.276L12 12z"
          fill="currentColor"
        />
  </symbol>
  <symbol id="claude" viewBox="0 0 24 24">
    <path
          d="m4.7144 15.9555 4.7174-2.6471.079-.2307-.079-.1275h-.2307l-.7893-.0486-2.6956-.0729-2.3375-.0971-2.2646-.1214-.5707-.1215-.5343-.7042.0546-.3522.4797-.3218.686.0608 1.5179.1032 2.2767.1578 1.6514.0972 2.4468.255h.3886l.0546-.1579-.1336-.0971-.1032-.0972L6.973 9.8356l-2.55-1.6879-1.3356-.9714-.7225-.4918-.3643-.4614-.1578-1.0078.6557-.7225.8803.0607.2246.0607.8925.686 1.9064 1.4754 2.4893 1.8336.3643.3035.1457-.1032.0182-.0728-.164-.2733-1.3539-2.4467-1.445-2.4893-.6435-1.032-.17-.6194c-.0607-.255-.1032-.4674-.1032-.7285L6.287.1335 6.6997 0l.9957.1336.419.3642.6192 1.4147 1.0018 2.2282 1.5543 3.0296.4553.8985.2429.8318.091.255h.1579v-.1457l.1275-1.706.2368-2.0947.2307-2.6957.0789-.7589.3764-.9107.7468-.4918.5828.2793.4797.686-.0668.4433-.2853 1.8517-.5586 2.9021-.3643 1.9429h.2125l.2429-.2429.9835-1.3053 1.6514-2.0643.7286-.8196.85-.9046.5464-.4311h1.0321l.759 1.1293-.34 1.1657-1.0625 1.3478-.8804 1.1414-1.2628 1.7-.7893 1.36.0729.1093.1882-.0183 2.8535-.607 1.5421-.2794 1.8396-.3157.8318.3886.091.3946-.3278.8075-1.967.4857-2.3072.4614-3.4364.8136-.0425.0304.0486.0607 1.5482.1457.6618.0364h1.621l3.0175.2247.7892.522.4736.6376-.079.4857-1.2142.6193-1.6393-.3886-3.825-.9107-1.3113-.3279h-.1822v.1093l1.0929 1.0686 2.0035 1.8092 2.5075 2.3314.1275.5768-.3218.4554-.34-.0486-2.2039-1.6575-.85-.7468-1.9246-1.621h-.1275v.17l.4432.6496 2.3436 3.5214.1214 1.0807-.17.3521-.6071.2125-.6679-.1214-1.3721-1.9246L14.38 17.959l-1.1414-1.9428-.1397.079-.674 7.2552-.3156.3703-.7286.2793-.6071-.4614-.3218-.7468.3218-1.4753.3886-1.9246.3157-1.53.2853-1.9004.17-.6314-.0121-.0425-.1397.0182-1.4328 1.9672-2.1796 2.9446-1.7243 1.8456-.4128.164-.7164-.3704.0667-.6618.4008-.5889 2.386-3.0357 1.4389-1.882.929-1.0868-.0062-.1579h-.0546l-6.3385 4.1164-1.1293.1457-.4857-.4554.0608-.7467.2307-.2429 1.9064-1.3114Z"
          fill="currentColor"
        />
  </symbol>
  <symbol id="chatgpt" viewBox="0 0 24 24">
    <path
          d="M22.2819 9.8211a5.9847 5.9847 0 0 0-.5157-4.9108 6.0462 6.0462 0 0 0-6.5098-2.9A6.0651 6.0651 0 0 0 4.9807 4.1818a5.9847 5.9847 0 0 0-3.9977 2.9 6.0462 6.0462 0 0 0 .7427 7.0966 5.98 5.98 0 0 0 .511 4.9107 6.051 6.051 0 0 0 6.5146 2.9001A5.9847 5.9847 0 0 0 13.2599 24a6.0557 6.0557 0 0 0 5.7718-4.2058 5.9894 5.9894 0 0 0 3.9977-2.9001 6.0557 6.0557 0 0 0-.7475-7.0729zm-9.022 12.6081a4.4755 4.4755 0 0 1-2.8764-1.0408l.1419-.0804 4.7783-2.7582a.7948.7948 0 0 0 .3927-.6813v-6.7369l2.02 1.1686a.071.071 0 0 1 .038.052v5.5826a4.504 4.504 0 0 1-4.4945 4.4944zm-9.6607-4.1254a4.4708 4.4708 0 0 1-.5346-3.0137l.142.0852 4.783 2.7582a.7712.7712 0 0 0 .7806 0l5.8428-3.3685v2.3324a.0804.0804 0 0 1-.0332.0615L9.74 19.9502a4.4992 4.4992 0 0 1-6.1408-1.6464zM2.3408 7.8956a4.485 4.485 0 0 1 2.3655-1.9728V11.6a.7664.7664 0 0 0 .3879.6765l5.8144 3.3543-2.0201 1.1685a.0757.0757 0 0 1-.071 0l-4.8303-2.7865A4.504 4.504 0 0 1 2.3408 7.872zm16.5963 3.8558L13.1038 8.364 15.1192 7.2a.0757.0757 0 0 1 .071 0l4.8303 2.7913a4.4944 4.4944 0 0 1-.6765 8.1042v-5.6772a.79.79 0 0 0-.407-.667zm2.0107-3.0231l-.142-.0852-4.7735-2.7818a.7759.7759 0 0 0-.7854 0L9.409 9.2297V6.8974a.0662.0662 0 0 1 .0284-.0615l4.8303-2.7866a4.4992 4.4992 0 0 1 6.6802 4.66zM8.3065 12.863l-2.02-1.1638a.0804.0804 0 0 1-.038-.0567V6.0742a4.4992 4.4992 0 0 1 7.3757-3.4537l-.142.0805L8.704 5.459a.7948.7948 0 0 0-.3927.6813zm1.0976-2.3654l2.602-1.4998 2.6069 1.4998v2.9994l-2.5974 1.4997-2.6067-1.4997Z"
          fill="currentColor"
        />
  </symbol>
  <symbol id="gemini" viewBox="0 0 24 24">
    <path
          d="M11.04 19.32Q12 21.51 12 24q0-2.49.93-4.68.96-2.19 2.58-3.81t3.81-2.55Q21.51 12 24 12q-2.49 0-4.68-.93a12.3 12.3 0 0 1-3.81-2.58 12.3 12.3 0 0 1-2.58-3.81Q12 2.49 12 0q0 2.49-.96 4.68-.93 2.19-2.55 3.81a12.3 12.3 0 0 1-3.81 2.58Q2.49 12 0 12q2.49 0 4.68.96 2.19.93 3.81 2.55t2.55 3.81"
          fill="currentColor"
        />
  </symbol>
  <symbol id="js" viewBox="0 0 24 24">
    <path
          d="M0 0h24v24H0V0zm22.034 18.276c-.175-1.095-.888-2.015-3.003-2.873-.736-.345-1.554-.585-1.797-1.14-.091-.33-.105-.51-.046-.705.15-.646.915-.84 1.515-.66.39.12.75.42.976.9 1.034-.676 1.034-.676 1.755-1.125-.27-.42-.404-.601-.586-.78-.63-.705-1.469-1.065-2.834-1.034l-.705.089c-.676.165-1.32.525-1.71 1.005-1.14 1.291-.811 3.541.569 4.471 1.365 1.02 3.361 1.244 3.616 2.205.24 1.17-.87 1.545-1.966 1.41-.811-.18-1.26-.586-1.755-1.336l-1.83 1.051c.21.48.45.689.81 1.109 1.74 1.756 6.09 1.666 6.871-1.004.029-.09.24-.705.074-1.65l.046.067zm-8.983-7.245h-2.248c0 1.938-.009 3.864-.009 5.805 0 1.232.063 2.363-.138 2.711-.33.689-1.18.601-1.566.48-.396-.196-.597-.466-.83-.855-.063-.105-.11-.196-.127-.196l-1.825 1.125c.305.63.75 1.172 1.324 1.517.855.51 2.004.675 3.207.405.783-.226 1.458-.691 1.811-1.411.51-.93.402-2.07.397-3.346.012-2.054 0-4.109 0-6.179l.004-.056z"
          fill="currentColor"
        />
  </symbol>
  <symbol id="typescript" viewBox="0 0 24 24">
    <path
          d="M1.125 0C.502 0 0 .502 0 1.125v21.75C0 23.498.502 24 1.125 24h21.75c.623 0 1.125-.502 1.125-1.125V1.125C24 .502 23.498 0 22.875 0zm17.363 9.75c.612 0 1.154.037 1.627.111a6.38 6.38 0 0 1 1.306.34v2.458a3.95 3.95 0 0 0-.643-.361 5.093 5.093 0 0 0-.717-.26 5.453 5.453 0 0 0-1.426-.2c-.3 0-.573.028-.819.086a2.1 2.1 0 0 0-.623.242c-.17.104-.3.229-.393.374a.888.888 0 0 0-.14.49c0 .196.053.373.156.529.104.156.252.304.443.444s.423.276.696.41c.273.135.582.274.926.416.47.197.892.407 1.266.628.374.222.695.473.963.753.268.279.472.598.614.957.142.359.214.776.214 1.253 0 .657-.125 1.21-.373 1.656a3.033 3.033 0 0 1-1.012 1.085 4.38 4.38 0 0 1-1.487.596c-.566.12-1.163.18-1.79.18a9.916 9.916 0 0 1-1.84-.164 5.544 5.544 0 0 1-1.512-.493v-2.63a5.033 5.033 0 0 0 3.237 1.2c.333 0 .624-.03.872-.09.249-.06.456-.144.623-.25.166-.108.29-.234.373-.38a1.023 1.023 0 0 0-.074-1.089 2.12 2.12 0 0 0-.537-.5 5.597 5.597 0 0 0-.807-.444 27.72 27.72 0 0 0-1.007-.436c-.918-.383-1.602-.852-2.053-1.405-.45-.553-.676-1.222-.676-2.005 0-.614.123-1.141.369-1.582.246-.441.58-.804 1.004-1.089a4.494 4.494 0 0 1 1.47-.629 7.536 7.536 0 0 1 1.77-.201zm-15.113.188h9.563v2.166H9.506v9.646H6.789v-9.646H3.375z"
          fill="currentColor"
        />
  </symbol>
  <symbol id="react" viewBox="0 0 24 24">
    <path
          d="M14.23 12.004a2.236 2.236 0 0 1-2.235 2.236 2.236 2.236 0 0 1-2.236-2.236 2.236 2.236 0 0 1 2.235-2.236 2.236 2.236 0 0 1 2.236 2.236zm2.648-10.69c-1.346 0-3.107.96-4.888 2.622-1.78-1.653-3.542-2.602-4.887-2.602-.41 0-.783.093-1.106.278-1.375.793-1.683 3.264-.973 6.365C1.98 8.917 0 10.42 0 12.004c0 1.59 1.99 3.097 5.043 4.03-.704 3.113-.39 5.588.988 6.38.32.187.69.275 1.102.275 1.345 0 3.107-.96 4.888-2.624 1.78 1.654 3.542 2.603 4.887 2.603.41 0 .783-.09 1.106-.275 1.374-.792 1.683-3.263.973-6.365C22.02 15.096 24 13.59 24 12.004c0-1.59-1.99-3.097-5.043-4.032.704-3.11.39-5.587-.988-6.38-.318-.184-.688-.277-1.092-.278zm-.005 1.09v.006c.225 0 .406.044.558.127.666.382.955 1.835.73 3.704-.054.46-.142.945-.25 1.44-.96-.236-2.006-.417-3.107-.534-.66-.905-1.345-1.727-2.035-2.447 1.592-1.48 3.087-2.292 4.105-2.295zm-9.77.02c1.012 0 2.514.808 4.11 2.28-.686.72-1.37 1.537-2.02 2.442-1.107.117-2.154.298-3.113.538-.112-.49-.195-.964-.254-1.42-.23-1.868.054-3.32.714-3.707.19-.09.4-.127.563-.132zm4.882 3.05c.455.468.91.992 1.36 1.564-.44-.02-.89-.034-1.345-.034-.46 0-.915.01-1.36.034.44-.572.895-1.096 1.345-1.565zM12 8.1c.74 0 1.477.034 2.202.093.406.582.802 1.203 1.183 1.86.372.64.71 1.29 1.018 1.946-.308.655-.646 1.31-1.013 1.95-.38.66-.773 1.288-1.18 1.87-.728.063-1.466.098-2.21.098-.74 0-1.477-.035-2.202-.093-.406-.582-.802-1.204-1.183-1.86-.372-.64-.71-1.29-1.018-1.946.303-.657.646-1.313 1.013-1.954.38-.66.773-1.286 1.18-1.868.728-.064 1.466-.098 2.21-.098zm-3.635.254c-.24.377-.48.763-.704 1.16-.225.39-.435.782-.635 1.174-.265-.656-.49-1.31-.676-1.947.64-.15 1.315-.283 2.015-.386zm7.26 0c.695.103 1.365.23 2.006.387-.18.632-.405 1.282-.66 1.933-.2-.39-.41-.783-.64-1.174-.225-.392-.465-.774-.705-1.146zm3.063.675c.484.15.944.317 1.375.498 1.732.74 2.852 1.708 2.852 2.476-.005.768-1.125 1.74-2.857 2.475-.42.18-.88.342-1.355.493-.28-.958-.646-1.956-1.1-2.98.45-1.017.81-2.01 1.085-2.964zm-13.395.004c.278.96.645 1.957 1.1 2.98-.45 1.017-.812 2.01-1.086 2.964-.484-.15-.944-.318-1.37-.5-1.732-.737-2.852-1.706-2.852-2.474 0-.768 1.12-1.742 2.852-2.476.42-.18.88-.342 1.356-.494zm11.678 4.28c.265.657.49 1.312.676 1.948-.64.157-1.316.29-2.016.39.24-.375.48-.762.705-1.158.225-.39.435-.788.636-1.18zm-9.945.02c.2.392.41.783.64 1.175.23.39.465.772.705 1.143-.695-.102-1.365-.23-2.006-.386.18-.63.406-1.282.66-1.933zM17.92 16.32c.112.493.2.968.254 1.423.23 1.868-.054 3.32-.714 3.708-.147.09-.338.128-.563.128-1.012 0-2.514-.807-4.11-2.28.686-.72 1.37-1.536 2.02-2.44 1.107-.118 2.154-.3 3.113-.54zm-11.83.01c.96.234 2.006.415 3.107.532.66.905 1.345 1.727 2.035 2.446-1.595 1.483-3.092 2.295-4.11 2.295-.22-.005-.406-.05-.553-.132-.666-.38-.955-1.834-.73-3.703.054-.46.142-.944.25-1.438zm4.56.64c.44.02.89.034 1.345.034.46 0 .915-.01 1.36-.034-.44.572-.895 1.095-1.345 1.565-.455-.47-.91-.993-1.36-1.565z"
          fill="currentColor"
        />
  </symbol>
  <symbol id="nextjs2" viewBox="0 0 24 24">
    <path
          d="M18.665 21.978C16.758 23.255 14.465 24 12 24 5.377 24 0 18.623 0 12S5.377 0 12 0s12 5.377 12 12c0 3.583-1.574 6.801-4.067 9.001L9.219 7.2H7.2v9.596h1.615V9.251l9.85 12.727Zm-3.332-8.533 1.6 2.061V7.2h-1.6v6.245Z"
          fill="currentColor"
        />
  </symbol>
  <symbol id="tailwindcss" viewBox="0 0 24 24">
    <path
          d="M12.001,4.8c-3.2,0-5.2,1.6-6,4.8c1.2-1.6,2.6-2.2,4.2-1.8c0.913,0.228,1.565,0.89,2.288,1.624 C13.666,10.618,15.027,12,18.001,12c3.2,0,5.2-1.6,6-4.8c-1.2,1.6-2.6,2.2-4.2,1.8c-0.913-0.228-1.565-0.89-2.288-1.624 C16.337,6.182,14.976,4.8,12.001,4.8z M6.001,12c-3.2,0-5.2,1.6-6,4.8c1.2-1.6,2.6-2.2,4.2-1.8c0.913,0.228,1.565,0.89,2.288,1.624 c1.177,1.194,2.538,2.576,5.512,2.576c3.2,0,5.2-1.6,6-4.8c-1.2,1.6-2.6,2.2-4.2,1.8c-0.913-0.228-1.565-0.89-2.288-1.624 C10.337,13.382,8.976,12,6.001,12z"
          fill="currentColor"
        />
  </symbol>
  <symbol id="nodejs" viewBox="0 0 24 24">
    <path
          d="M11.998,24c-0.321,0-0.641-0.084-0.922-0.247l-2.936-1.737c-0.438-0.245-0.224-0.332-0.08-0.383 c0.585-0.203,0.703-0.25,1.328-0.604c0.065-0.037,0.151-0.023,0.218,0.017l2.256,1.339c0.082,0.045,0.197,0.045,0.272,0 l8.795-5.076c0.082-0.047,0.134-0.141,0.134-0.238V6.921c0-0.099-0.053-0.192-0.137-0.242l-8.791-5.072 c-0.081-0.047-0.189-0.047-0.271,0L3.075,6.68C2.99,6.729,2.936,6.825,2.936,6.921v10.15c0,0.097,0.054,0.189,0.139,0.235 l2.409,1.392c1.307,0.654,2.108-0.116,2.108-0.89V7.787c0-0.142,0.114-0.253,0.256-0.253h1.115c0.139,0,0.255,0.112,0.255,0.253 v10.021c0,1.745-0.95,2.745-2.604,2.745c-0.508,0-0.909,0-2.026-0.551L2.28,18.675c-0.57-0.329-0.922-0.945-0.922-1.604V6.921 c0-0.659,0.353-1.275,0.922-1.603l8.795-5.082c0.557-0.315,1.296-0.315,1.848,0l8.794,5.082c0.57,0.329,0.924,0.944,0.924,1.603 v10.15c0,0.659-0.354,1.273-0.924,1.604l-8.794,5.078C12.643,23.916,12.324,24,11.998,24z M19.099,13.993 c0-1.9-1.284-2.406-3.987-2.763c-2.731-0.361-3.009-0.548-3.009-1.187c0-0.528,0.235-1.233,2.258-1.233 c1.807,0,2.473,0.389,2.747,1.607c0.024,0.115,0.129,0.199,0.247,0.199h1.141c0.071,0,0.138-0.031,0.186-0.081 c0.048-0.054,0.074-0.123,0.067-0.196c-0.177-2.098-1.571-3.076-4.388-3.076c-2.508,0-4.004,1.058-4.004,2.833 c0,1.925,1.488,2.457,3.895,2.695c2.88,0.282,3.103,0.703,3.103,1.269c0,0.983-0.789,1.402-2.642,1.402 c-2.327,0-2.839-0.584-3.011-1.742c-0.02-0.124-0.126-0.215-0.253-0.215h-1.137c-0.141,0-0.254,0.112-0.254,0.253 c0,1.482,0.806,3.248,4.655,3.248C17.501,17.007,19.099,15.91,19.099,13.993z"
          fill="currentColor"
        />
  </symbol>
  <symbol id="bun" viewBox="0 0 24 24">
    <path
          d="M12 22.596c6.628 0 12-4.338 12-9.688 0-3.318-2.057-6.248-5.219-7.986-1.286-.715-2.297-1.357-3.139-1.89C14.058 2.025 13.08 1.404 12 1.404c-1.097 0-2.334.785-3.966 1.821a49.92 49.92 0 0 1-2.816 1.697C2.057 6.66 0 9.59 0 12.908c0 5.35 5.372 9.687 12 9.687v.001ZM10.599 4.715c.334-.759.503-1.58.498-2.409 0-.145.202-.187.23-.029.658 2.783-.902 4.162-2.057 4.624-.124.048-.199-.121-.103-.209a5.763 5.763 0 0 0 1.432-1.977Zm2.058-.102a5.82 5.82 0 0 0-.782-2.306v-.016c-.069-.123.086-.263.185-.172 1.962 2.111 1.307 4.067.556 5.051-.082.103-.23-.003-.189-.126a5.85 5.85 0 0 0 .23-2.431Zm1.776-.561a5.727 5.727 0 0 0-1.612-1.806v-.014c-.112-.085-.024-.274.114-.218 2.595 1.087 2.774 3.18 2.459 4.407a.116.116 0 0 1-.049.071.11.11 0 0 1-.153-.026.122.122 0 0 1-.022-.083 5.891 5.891 0 0 0-.737-2.331Zm-5.087.561c-.617.546-1.282.76-2.063 1-.117 0-.195-.078-.156-.181 1.752-.909 2.376-1.649 2.999-2.778 0 0 .155-.118.188.085 0 .304-.349 1.329-.968 1.874Zm4.945 11.237a2.957 2.957 0 0 1-.937 1.553c-.346.346-.8.565-1.286.62a2.178 2.178 0 0 1-1.327-.62 2.955 2.955 0 0 1-.925-1.553.244.244 0 0 1 .064-.198.234.234 0 0 1 .193-.069h3.965a.226.226 0 0 1 .19.07c.05.053.073.125.063.197Zm-5.458-2.176a1.862 1.862 0 0 1-2.384-.245 1.98 1.98 0 0 1-.233-2.447c.207-.319.503-.566.848-.713a1.84 1.84 0 0 1 1.092-.11c.366.075.703.261.967.531a1.98 1.98 0 0 1 .408 2.114 1.931 1.931 0 0 1-.698.869v.001Zm8.495.005a1.86 1.86 0 0 1-2.381-.253 1.964 1.964 0 0 1-.547-1.366c0-.384.11-.76.32-1.079.207-.319.503-.567.849-.713a1.844 1.844 0 0 1 1.093-.108c.367.076.704.262.968.534a1.98 1.98 0 0 1 .4 2.117 1.932 1.932 0 0 1-.702.868Z"
          fill="currentColor"
        />
  </symbol>
  <symbol id="mysql" viewBox="0 0 24 24">
    <path
          d="M16.405 5.501c-.115 0-.193.014-.274.033v.013h.014c.054.104.146.18.214.273.054.107.1.214.154.32l.014-.015c.094-.066.14-.172.14-.333-.04-.047-.046-.094-.08-.14-.04-.067-.126-.1-.18-.153zM5.77 18.695h-.927a50.854 50.854 0 00-.27-4.41h-.008l-1.41 4.41H2.45l-1.4-4.41h-.01a72.892 72.892 0 00-.195 4.41H0c.055-1.966.192-3.81.41-5.53h1.15l1.335 4.064h.008l1.347-4.064h1.095c.242 2.015.384 3.86.428 5.53zm4.017-4.08c-.378 2.045-.876 3.533-1.492 4.46-.482.716-1.01 1.073-1.583 1.073-.153 0-.34-.046-.566-.138v-.494c.11.017.24.026.386.026.268 0 .483-.075.647-.222.197-.18.295-.382.295-.605 0-.155-.077-.47-.23-.944L6.23 14.615h.91l.727 2.36c.164.536.233.91.205 1.123.4-1.064.678-2.227.835-3.483zm12.325 4.08h-2.63v-5.53h.885v4.85h1.745zm-3.32.135l-1.016-.5c.09-.076.177-.158.255-.25.433-.506.648-1.258.648-2.253 0-1.83-.718-2.746-2.155-2.746-.704 0-1.254.232-1.65.697-.43.508-.646 1.256-.646 2.245 0 .972.19 1.686.574 2.14.35.41.877.615 1.583.615.264 0 .506-.033.725-.098l1.325.772.36-.622zM15.5 17.588c-.225-.36-.337-.94-.337-1.736 0-1.393.424-2.09 1.27-2.09.443 0 .77.167.977.5.224.362.336.936.336 1.723 0 1.404-.424 2.108-1.27 2.108-.445 0-.77-.167-.978-.5zm-1.658-.425c0 .47-.172.856-.516 1.156-.344.3-.803.45-1.384.45-.543 0-1.064-.172-1.573-.515l.237-.476c.438.22.833.328 1.19.328.332 0 .593-.073.783-.22a.754.754 0 00.3-.615c0-.33-.23-.61-.648-.845-.388-.213-1.163-.657-1.163-.657-.422-.307-.632-.636-.632-1.177 0-.45.157-.81.47-1.085.315-.278.72-.415 1.22-.415.512 0 .98.136 1.4.41l-.213.476a2.726 2.726 0 00-1.064-.23c-.283 0-.502.068-.654.206a.685.685 0 00-.248.524c0 .328.234.61.666.85.393.215 1.187.67 1.187.67.433.305.648.63.648 1.168zm9.382-5.852c-.535-.014-.95.04-1.297.188-.1.04-.26.04-.274.167.055.053.063.14.11.214.08.134.218.313.346.407.14.11.28.216.427.31.26.16.555.255.81.416.145.094.293.213.44.313.073.05.12.14.214.172v-.02c-.046-.06-.06-.147-.105-.214-.067-.067-.134-.127-.2-.193a3.223 3.223 0 00-.695-.675c-.214-.146-.682-.35-.77-.595l-.013-.014c.146-.013.32-.066.46-.106.227-.06.435-.047.67-.106.106-.027.213-.06.32-.094v-.06c-.12-.12-.21-.283-.334-.395a8.867 8.867 0 00-1.104-.823c-.21-.134-.476-.22-.697-.334-.08-.04-.214-.06-.26-.127-.12-.146-.19-.34-.275-.514a17.69 17.69 0 01-.547-1.163c-.12-.262-.193-.523-.34-.763-.69-1.137-1.437-1.826-2.586-2.5-.247-.14-.543-.2-.856-.274-.167-.008-.334-.02-.5-.027-.11-.047-.216-.174-.31-.235-.38-.24-1.364-.76-1.644-.072-.18.434.267.862.422 1.082.115.153.26.328.34.5.047.116.06.235.107.356.106.294.207.622.347.897.073.14.153.287.247.413.054.073.146.107.167.227-.094.136-.1.334-.154.5-.24.757-.146 1.693.194 2.25.107.166.362.534.703.393.3-.12.234-.5.32-.835.02-.08.007-.133.048-.187v.015c.094.188.188.367.274.555.206.328.566.668.867.895.16.12.287.328.487.402v-.02h-.015c-.043-.058-.1-.086-.154-.133a3.445 3.445 0 01-.35-.4 8.76 8.76 0 01-.747-1.218c-.11-.21-.202-.436-.29-.643-.04-.08-.04-.2-.107-.24-.1.146-.247.273-.32.453-.127.288-.14.642-.188 1.01-.027.007-.014 0-.027.014-.214-.052-.287-.274-.367-.46-.2-.475-.233-1.238-.06-1.785.047-.14.247-.582.167-.716-.042-.127-.174-.2-.247-.303a2.478 2.478 0 01-.24-.427c-.16-.374-.24-.788-.414-1.162-.08-.173-.22-.354-.334-.513-.127-.18-.267-.307-.368-.52-.033-.073-.08-.194-.027-.274.014-.054.042-.075.094-.09.088-.072.335.022.422.062.247.1.455.194.662.334.094.066.195.193.315.226h.14c.214.047.455.014.655.073.355.114.675.28.962.46a5.953 5.953 0 012.085 2.286c.08.154.115.295.188.455.14.33.313.663.455.982.14.315.275.636.476.897.1.14.502.213.682.286.133.06.34.115.46.188.23.14.454.3.67.454.11.076.443.243.463.378z"
          fill="currentColor"
        />
  </symbol>
  <symbol id="cplusplus" viewBox="0 0 24 24">
    <path
          d="M22.394 6c-.167-.29-.398-.543-.652-.69L12.926.22c-.509-.294-1.34-.294-1.848 0L2.26 5.31c-.508.293-.923 1.013-.923 1.6v10.18c0 .294.104.62.271.91.167.29.398.543.652.69l8.816 5.09c.508.293 1.34.293 1.848 0l8.816-5.09c.254-.147.485-.4.652-.69.167-.29.27-.616.27-.91V6.91c.003-.294-.1-.62-.268-.91zM12 19.11c-3.92 0-7.109-3.19-7.109-7.11 0-3.92 3.19-7.11 7.11-7.11a7.133 7.133 0 016.156 3.553l-3.076 1.78a3.567 3.567 0 00-3.08-1.78A3.56 3.56 0 008.444 12 3.56 3.56 0 0012 15.555a3.57 3.57 0 003.08-1.778l3.078 1.78A7.135 7.135 0 0112 19.11zm7.11-6.715h-.79v.79h-.79v-.79h-.79v-.79h.79v-.79h.79v.79h.79zm2.962 0h-.79v.79h-.79v-.79h-.79v-.79h.79v-.79h.79v.79h.79z"
          fill="currentColor"
        />
  </symbol>
  <symbol id="fastapi" viewBox="0 0 24 24">
    <path
          d="M12 .0387C5.3729.0384.0003 5.3931 0 11.9988c-.001 6.6066 5.372 11.9628 12 11.9625 6.628.0003 12.001-5.3559 12-11.9625-.0003-6.6057-5.3729-11.9604-12-11.96m-.829 5.4153h7.55l-7.5805 5.3284h5.1828L5.279 18.5436q2.9466-6.5444 5.892-13.0896"
          fill="currentColor"
        />
  </symbol>
  <symbol id="postgresql" viewBox="0 0 24 24">
    <path
          d="M23.5594 14.7228a.5269.5269 0 0 0-.0563-.1191c-.139-.2632-.4768-.3418-1.0074-.2321-1.6533.3411-2.2935.1312-2.5256-.0191 1.342-2.0482 2.445-4.522 3.0411-6.8297.2714-1.0507.7982-3.5237.1222-4.7316a1.5641 1.5641 0 0 0-.1509-.235C21.6931.9086 19.8007.0248 17.5099.0005c-1.4947-.0158-2.7705.3461-3.1161.4794a9.449 9.449 0 0 0-.5159-.0816 8.044 8.044 0 0 0-1.3114-.1278c-1.1822-.0184-2.2038.2642-3.0498.8406-.8573-.3211-4.7888-1.645-7.2219.0788C.9359 2.1526.3086 3.8733.4302 6.3043c.0409.818.5069 3.334 1.2423 5.7436.4598 1.5065.9387 2.7019 1.4334 3.582.553.9942 1.1259 1.5933 1.7143 1.7895.4474.1491 1.1327.1441 1.8581-.7279.8012-.9635 1.5903-1.8258 1.9446-2.2069.4351.2355.9064.3625 1.39.3772a.0569.0569 0 0 0 .0004.0041 11.0312 11.0312 0 0 0-.2472.3054c-.3389.4302-.4094.5197-1.5002.7443-.3102.064-1.1344.2339-1.1464.8115-.0025.1224.0329.2309.0919.3268.2269.4231.9216.6097 1.015.6331 1.3345.3335 2.5044.092 3.3714-.6787-.017 2.231.0775 4.4174.3454 5.0874.2212.5529.7618 1.9045 2.4692 1.9043.2505 0 .5263-.0291.8296-.0941 1.7819-.3821 2.5557-1.1696 2.855-2.9059.1503-.8707.4016-2.8753.5388-4.1012.0169-.0703.0357-.1207.057-.1362.0007-.0005.0697-.0471.4272.0307a.3673.3673 0 0 0 .0443.0068l.2539.0223.0149.001c.8468.0384 1.9114-.1426 2.5312-.4308.6438-.2988 1.8057-1.0323 1.5951-1.6698zM2.371 11.8765c-.7435-2.4358-1.1779-4.8851-1.2123-5.5719-.1086-2.1714.4171-3.6829 1.5623-4.4927 1.8367-1.2986 4.8398-.5408 6.108-.13-.0032.0032-.0066.0061-.0098.0094-2.0238 2.044-1.9758 5.536-1.9708 5.7495-.0002.0823.0066.1989.0162.3593.0348.5873.0996 1.6804-.0735 2.9184-.1609 1.1504.1937 2.2764.9728 3.0892.0806.0841.1648.1631.2518.2374-.3468.3714-1.1004 1.1926-1.9025 2.1576-.5677.6825-.9597.5517-1.0886.5087-.3919-.1307-.813-.5871-1.2381-1.3223-.4796-.839-.9635-2.0317-1.4155-3.5126zm6.0072 5.0871c-.1711-.0428-.3271-.1132-.4322-.1772.0889-.0394.2374-.0902.4833-.1409 1.2833-.2641 1.4815-.4506 1.9143-1.0002.0992-.126.2116-.2687.3673-.4426a.3549.3549 0 0 0 .0737-.1298c.1708-.1513.2724-.1099.4369-.0417.156.0646.3078.26.3695.4752.0291.1016.0619.2945-.0452.4444-.9043 1.2658-2.2216 1.2494-3.1676 1.0128zm2.094-3.988-.0525.141c-.133.3566-.2567.6881-.3334 1.003-.6674-.0021-1.3168-.2872-1.8105-.8024-.6279-.6551-.9131-1.5664-.7825-2.5004.1828-1.3079.1153-2.4468.079-3.0586-.005-.0857-.0095-.1607-.0122-.2199.2957-.2621 1.6659-.9962 2.6429-.7724.4459.1022.7176.4057.8305.928.5846 2.7038.0774 3.8307-.3302 4.7363-.084.1866-.1633.3629-.2311.5454zm7.3637 4.5725c-.0169.1768-.0358.376-.0618.5959l-.146.4383a.3547.3547 0 0 0-.0182.1077c-.0059.4747-.054.6489-.115.8693-.0634.2292-.1353.4891-.1794 1.0575-.11 1.4143-.8782 2.2267-2.4172 2.5565-1.5155.3251-1.7843-.4968-2.0212-1.2217a6.5824 6.5824 0 0 0-.0769-.2266c-.2154-.5858-.1911-1.4119-.1574-2.5551.0165-.5612-.0249-1.9013-.3302-2.6462.0044-.2932.0106-.5909.019-.8918a.3529.3529 0 0 0-.0153-.1126 1.4927 1.4927 0 0 0-.0439-.208c-.1226-.4283-.4213-.7866-.7797-.9351-.1424-.059-.4038-.1672-.7178-.0869.067-.276.1831-.5875.309-.9249l.0529-.142c.0595-.16.134-.3257.213-.5012.4265-.9476 1.0106-2.2453.3766-5.1772-.2374-1.0981-1.0304-1.6343-2.2324-1.5098-.7207.0746-1.3799.3654-1.7088.5321a5.6716 5.6716 0 0 0-.1958.1041c.0918-1.1064.4386-3.1741 1.7357-4.4823a4.0306 4.0306 0 0 1 .3033-.276.3532.3532 0 0 0 .1447-.0644c.7524-.5706 1.6945-.8506 2.802-.8325.4091.0067.8017.0339 1.1742.081 1.939.3544 3.2439 1.4468 4.0359 2.3827.8143.9623 1.2552 1.9315 1.4312 2.4543-1.3232-.1346-2.2234.1268-2.6797.779-.9926 1.4189.543 4.1729 1.2811 5.4964.1353.2426.2522.4522.2889.5413.2403.5825.5515.9713.7787 1.2552.0696.087.1372.1714.1885.245-.4008.1155-1.1208.3825-1.0552 1.717-.0123.1563-.0423.4469-.0834.8148-.0461.2077-.0702.4603-.0994.7662zm.8905-1.6211c-.0405-.8316.2691-.9185.5967-1.0105a2.8566 2.8566 0 0 0 .135-.0406 1.202 1.202 0 0 0 .1342.103c.5703.3765 1.5823.4213 3.0068.1344-.2016.1769-.5189.3994-.9533.6011-.4098.1903-1.0957.333-1.7473.3636-.7197.0336-1.0859-.0807-1.1721-.151zm.5695-9.2712c-.0059.3508-.0542.6692-.1054 1.0017-.055.3576-.112.7274-.1264 1.1762-.0142.4368.0404.8909.0932 1.3301.1066.887.216 1.8003-.2075 2.7014a3.5272 3.5272 0 0 1-.1876-.3856c-.0527-.1276-.1669-.3326-.3251-.6162-.6156-1.1041-2.0574-3.6896-1.3193-4.7446.3795-.5427 1.3408-.5661 2.1781-.463zm.2284 7.0137a12.3762 12.3762 0 0 0-.0853-.1074l-.0355-.0444c.7262-1.1995.5842-2.3862.4578-3.4385-.0519-.4318-.1009-.8396-.0885-1.2226.0129-.4061.0666-.7543.1185-1.0911.0639-.415.1288-.8443.1109-1.3505.0134-.0531.0188-.1158.0118-.1902-.0457-.4855-.5999-1.938-1.7294-3.253-.6076-.7073-1.4896-1.4972-2.6889-2.0395.5251-.1066 1.2328-.2035 2.0244-.1859 2.0515.0456 3.6746.8135 4.8242 2.2824a.908.908 0 0 1 .0667.1002c.7231 1.3556-.2762 6.2751-2.9867 10.5405zm-8.8166-6.1162c-.025.1794-.3089.4225-.6211.4225a.5821.5821 0 0 1-.0809-.0056c-.1873-.026-.3765-.144-.5059-.3156-.0458-.0605-.1203-.178-.1055-.2844.0055-.0401.0261-.0985.0925-.1488.1182-.0894.3518-.1226.6096-.0867.3163.0441.6426.1938.6113.4186zm7.9305-.4114c.0111.0792-.049.201-.1531.3102-.0683.0717-.212.1961-.4079.2232a.5456.5456 0 0 1-.075.0052c-.2935 0-.5414-.2344-.5607-.3717-.024-.1765.2641-.3106.5611-.352.297-.0414.6111.0088.6356.1851z"
          fill="currentColor"
        />
  </symbol>
  <symbol id="docker" viewBox="0 0 24 24">
    <path
          d="M13.983 11.078h2.119a.186.186 0 00.186-.185V9.006a.186.186 0 00-.186-.186h-2.119a.185.185 0 00-.185.185v1.888c0 .102.083.185.185.185m-2.954-5.43h2.118a.186.186 0 00.186-.186V3.574a.186.186 0 00-.186-.185h-2.118a.185.185 0 00-.185.185v1.888c0 .102.082.185.185.185m0 2.716h2.118a.187.187 0 00.186-.186V6.29a.186.186 0 00-.186-.185h-2.118a.185.185 0 00-.185.185v1.887c0 .102.082.185.185.186m-2.93 0h2.12a.186.186 0 00.184-.186V6.29a.185.185 0 00-.185-.185H8.1a.185.185 0 00-.185.185v1.887c0 .102.083.185.185.186m-2.964 0h2.119a.186.186 0 00.185-.186V6.29a.185.185 0 00-.185-.185H5.136a.186.186 0 00-.186.185v1.887c0 .102.084.185.186.186m5.893 2.715h2.118a.186.186 0 00.186-.185V9.006a.186.186 0 00-.186-.186h-2.118a.185.185 0 00-.185.185v1.888c0 .102.082.185.185.185m-2.93 0h2.12a.185.185 0 00.184-.185V9.006a.185.185 0 00-.184-.186h-2.12a.185.185 0 00-.184.185v1.888c0 .102.083.185.185.185m-2.964 0h2.119a.185.185 0 00.185-.185V9.006a.185.185 0 00-.184-.186h-2.12a.186.186 0 00-.186.186v1.887c0 .102.084.185.186.185m-2.92 0h2.12a.185.185 0 00.184-.185V9.006a.185.185 0 00-.184-.186h-2.12a.185.185 0 00-.184.185v1.888c0 .102.082.185.185.185M23.763 9.89c-.065-.051-.672-.51-1.954-.51-.338.001-.676.03-1.01.087-.248-1.7-1.653-2.53-1.716-2.566l-.344-.199-.226.327c-.284.438-.49.922-.612 1.43-.23.97-.09 1.882.403 2.661-.595.332-1.55.413-1.744.42H.751a.751.751 0 00-.75.748 11.376 11.376 0 00.692 4.062c.545 1.428 1.355 2.48 2.41 3.124 1.18.723 3.1 1.137 5.275 1.137.983.003 1.963-.086 2.93-.266a12.248 12.248 0 003.823-1.389c.98-.567 1.86-1.288 2.61-2.136 1.252-1.418 1.998-2.997 2.553-4.4h.221c1.372 0 2.215-.549 2.68-1.009.309-.293.55-.65.707-1.046l.098-.288Z"
          fill="currentColor"
        />
  </symbol>
  <symbol id="microsoftazure" viewBox="0 0 24 24">
    <path
          d="M22.379 23.343a1.62 1.62 0 0 0 1.536-2.14v.002L17.35 1.76A1.62 1.62 0 0 0 15.816.657H8.184A1.62 1.62 0 0 0 6.65 1.76L.086 21.204a1.62 1.62 0 0 0 1.536 2.139h4.741a1.62 1.62 0 0 0 1.535-1.103l.977-2.892 4.947 3.675c.28.208.618.32.966.32m-3.084-12.531 3.624 10.739a.54.54 0 0 1-.51.713v-.001h-.03a.54.54 0 0 1-.322-.106l-9.287-6.9h4.853m6.313 7.006c.116-.326.13-.694.007-1.058L9.79 1.76a1.722 1.722 0 0 0-.007-.02h6.034a.54.54 0 0 1 .512.366l6.562 19.445a.54.54 0 0 1-.338.684"
          fill="currentColor"
        />
  </symbol>
  <symbol id="github" viewBox="0 0 24 24">
    <path
        d="M12 .297c-6.63 0-12 5.373-12 12 0 5.303 3.438 9.8 8.205 11.385.6.113.82-.258.82-.577 0-.285-.01-1.04-.015-2.04-3.338.724-4.042-1.61-4.042-1.61C4.422 18.07 3.633 17.7 3.633 17.7c-1.087-.744.084-.729.084-.729 1.205.084 1.838 1.236 1.838 1.236 1.07 1.835 2.809 1.305 3.495.998.108-.776.417-1.305.76-1.605-2.665-.3-5.466-1.332-5.466-5.93 0-1.31.465-2.38 1.235-3.22-.135-.303-.54-1.523.105-3.176 0 0 1.005-.322 3.3 1.23.96-.267 1.98-.399 3-.405 1.02.006 2.04.138 3 .405 2.28-1.552 3.285-1.23 3.285-1.23.645 1.653.24 2.873.12 3.176.765.84 1.23 1.91 1.23 3.22 0 4.61-2.805 5.625-5.475 5.92.42.36.81 1.096.81 2.22 0 1.606-.015 2.896-.015 3.286 0 .315.21.69.825.57C20.565 22.092 24 17.592 24 12.297c0-6.627-5.373-12-12-12"
        fill="currentColor"
      />
  </symbol>
  <symbol id="prometheus" viewBox="0 0 24 24">
    <path
          d="M12 0C5.373 0 0 5.372 0 12c0 6.627 5.373 12 12 12s12-5.373 12-12c0-6.628-5.373-12-12-12zm0 22.46c-1.885 0-3.414-1.26-3.414-2.814h6.828c0 1.553-1.528 2.813-3.414 2.813zm5.64-3.745H6.36v-2.046h11.28v2.046zm-.04-3.098H6.391c-.037-.043-.075-.086-.111-.13-1.155-1.401-1.427-2.133-1.69-2.879-.005-.025 1.4.287 2.395.511 0 0 .513.119 1.262.255-.72-.843-1.147-1.915-1.147-3.01 0-2.406 1.845-4.508 1.18-6.207.648.053 1.34 1.367 1.387 3.422.689-.951.977-2.69.977-3.755 0-1.103.727-2.385 1.454-2.429-.648 1.069.168 1.984.894 4.256.272.854.237 2.29.447 3.201.07-1.892.395-4.652 1.595-5.605-.529 1.2.079 2.702.494 3.424.671 1.164 1.078 2.047 1.078 3.716a4.642 4.642 0 01-1.11 2.996c.792-.149 1.34-.283 1.34-.283l2.573-.502s-.374 1.538-1.81 3.019z"
          fill="currentColor"
        />
  </symbol>
  <symbol id="grafana" viewBox="0 0 24 24">
    <path
          d="M23.02 10.59a8.578 8.578 0 0 0-.862-3.034 8.911 8.911 0 0 0-1.789-2.445c.337-1.342-.413-2.505-.413-2.505-1.292-.08-2.113.4-2.416.62-.052-.02-.102-.044-.154-.064-.22-.089-.446-.172-.677-.247-.231-.073-.47-.14-.711-.197a9.867 9.867 0 0 0-.875-.161C14.557.753 12.94 0 12.94 0c-1.804 1.145-2.147 2.744-2.147 2.744l-.018.093c-.098.029-.2.057-.298.088-.138.042-.275.094-.413.143-.138.055-.275.107-.41.166a8.869 8.869 0 0 0-1.557.87l-.063-.029c-2.497-.955-4.716.195-4.716.195-.203 2.658.996 4.33 1.235 4.636a11.608 11.608 0 0 0-.607 2.635C1.636 12.677.953 15.014.953 15.014c1.926 2.214 4.171 2.351 4.171 2.351.003-.002.006-.002.006-.005.285.509.615.994.986 1.446.156.19.32.371.488.548-.704 2.009.099 3.68.099 3.68 2.144.08 3.553-.937 3.849-1.173a9.784 9.784 0 0 0 3.164.501h.08l.055-.003.107-.002.103-.005.003.002c1.01 1.44 2.788 1.646 2.788 1.646 1.264-1.332 1.337-2.653 1.337-2.94v-.058c0-.02-.003-.039-.003-.06.265-.187.52-.387.758-.6a7.875 7.875 0 0 0 1.415-1.7c1.43.083 2.437-.885 2.437-.885-.236-1.49-1.085-2.216-1.264-2.354l-.018-.013-.016-.013a.217.217 0 0 1-.031-.02c.008-.092.016-.18.02-.27.011-.162.016-.323.016-.48v-.253l-.005-.098-.008-.135a1.891 1.891 0 0 0-.01-.13c-.003-.042-.008-.083-.013-.125l-.016-.124-.018-.122a6.215 6.215 0 0 0-2.032-3.73 6.015 6.015 0 0 0-3.222-1.46 6.292 6.292 0 0 0-.85-.048l-.107.002h-.063l-.044.003-.104.008a4.777 4.777 0 0 0-3.335 1.695c-.332.4-.592.84-.768 1.297a4.594 4.594 0 0 0-.312 1.817l.003.091c.005.055.007.11.013.164a3.615 3.615 0 0 0 .698 1.82 3.53 3.53 0 0 0 1.827 1.282c.33.098.66.14.971.137.039 0 .078 0 .114-.002l.063-.003c.02 0 .041-.003.062-.003.034-.002.065-.007.099-.01.007 0 .018-.003.028-.003l.031-.005.06-.008a1.18 1.18 0 0 0 .112-.02c.036-.008.072-.013.109-.024a2.634 2.634 0 0 0 .914-.415c.028-.02.056-.041.085-.065a.248.248 0 0 0 .039-.35.244.244 0 0 0-.309-.06l-.078.042c-.09.044-.184.083-.283.116a2.476 2.476 0 0 1-.475.096c-.028.003-.054.006-.083.006l-.083.002c-.026 0-.054 0-.08-.002l-.102-.006h-.012l-.024.006c-.016-.003-.031-.003-.044-.006-.031-.002-.06-.007-.091-.01a2.59 2.59 0 0 1-.724-.213 2.557 2.557 0 0 1-.667-.438 2.52 2.52 0 0 1-.805-1.475 2.306 2.306 0 0 1-.029-.444l.006-.122v-.023l.002-.031c.003-.021.003-.04.005-.06a3.163 3.163 0 0 1 1.352-2.29 3.12 3.12 0 0 1 .937-.43 2.946 2.946 0 0 1 .776-.101h.06l.07.002.045.003h.026l.07.005a4.041 4.041 0 0 1 1.635.49 3.94 3.94 0 0 1 1.602 1.662 3.77 3.77 0 0 1 .397 1.414l.005.076.003.075c.002.026.002.05.002.075 0 .024.003.052 0 .07v.065l-.002.073-.008.174a6.195 6.195 0 0 1-.08.639 5.1 5.1 0 0 1-.267.927 5.31 5.31 0 0 1-.624 1.13 5.052 5.052 0 0 1-3.237 2.014 4.82 4.82 0 0 1-.649.066l-.039.003h-.287a6.607 6.607 0 0 1-1.716-.265 6.776 6.776 0 0 1-3.4-2.274 6.75 6.75 0 0 1-.746-1.15 6.616 6.616 0 0 1-.714-2.596l-.005-.083-.002-.02v-.056l-.003-.073v-.096l-.003-.104v-.07l.003-.163c.008-.22.026-.45.054-.678a8.707 8.707 0 0 1 .28-1.355c.128-.444.286-.872.473-1.277a7.04 7.04 0 0 1 1.456-2.1 5.925 5.925 0 0 1 .953-.763c.169-.111.343-.213.524-.306.089-.05.182-.091.273-.135.047-.02.093-.042.138-.062a7.177 7.177 0 0 1 .714-.267l.145-.045c.049-.015.098-.026.148-.041.098-.029.197-.052.296-.076.049-.013.1-.02.15-.033l.15-.032.151-.028.076-.013.075-.01.153-.024c.057-.01.114-.013.171-.023l.169-.021c.036-.003.073-.008.106-.01l.073-.008.036-.003.042-.002c.057-.003.114-.008.171-.01l.086-.006h.023l.037-.003.145-.007a7.999 7.999 0 0 1 1.708.125 7.917 7.917 0 0 1 2.048.68 8.253 8.253 0 0 1 1.672 1.09l.09.077.089.078c.06.052.114.107.171.159.057.052.112.106.166.16.052.055.107.107.159.164a8.671 8.671 0 0 1 1.41 1.978c.012.026.028.052.04.078l.04.078.075.156c.023.051.05.1.07.153l.065.15a8.848 8.848 0 0 1 .45 1.34.19.19 0 0 0 .201.142.186.186 0 0 0 .172-.184c.01-.246.002-.532-.024-.856z"
          fill="currentColor"
        />
  </symbol>
  <symbol id="vscode" viewBox="0 0 24 24">
    <path
          d="M23.15 2.587L18.21.21a1.494 1.494 0 0 0-1.705.29l-9.46 8.63-4.12-3.128a.999.999 0 0 0-1.276.057L.327 7.261A1 1 0 0 0 .326 8.74L3.899 12 .326 15.26a1 1 0 0 0 .001 1.479L1.65 17.94a.999.999 0 0 0 1.276.057l4.12-3.128 9.46 8.63a1.492 1.492 0 0 0 1.704.29l4.942-2.377A1.5 1.5 0 0 0 24 20.06V3.939a1.5 1.5 0 0 0-.85-1.352zm-5.146 14.861L10.826 12l7.178-5.448v10.896z"
          fill="currentColor"
        />
  </symbol>
  <symbol id="git" viewBox="0 0 24 24">
    <path
          d="M23.546 10.93L13.067.452c-.604-.603-1.582-.603-2.188 0L8.708 2.627l2.76 2.76c.645-.215 1.379-.07 1.889.441.516.515.658 1.258.438 1.9l2.658 2.66c.645-.223 1.387-.078 1.9.435.721.72.721 1.884 0 2.604-.719.719-1.881.719-2.6 0-.529-.527-.667-1.29-.413-1.948L12.75 8.784v6.848c.189.108.36.252.504.4.721.72.721 1.884 0 2.604-.719.719-1.883.719-2.602 0-.721-.72-.721-1.884 0-2.604.175-.175.385-.303.61-.378V8.672c-.225-.075-.435-.203-.61-.378-.535-.537-.669-1.312-.401-1.977L7.467 3.54 0 11.008c-.604.604-.604 1.582 0 2.186l10.479 10.48c.604.604 1.582.604 2.186 0l10.88-10.88c.604-.604.604-1.582 0-2.186"
          fill="currentColor"
        />
  </symbol>
  <symbol id="claudecode" viewBox="0 0 24 24">
    <path
          clip-rule="evenodd"
          d="M20.998 10.949H24v3.102h-3v3.028h-1.487V20H18v-2.921h-1.487V20H15v-2.921H9V20H7.488v-2.921H6V20H4.487v-2.921H3V14.05H0V10.95h3V5h17.998v5.949zM6 10.949h1.488V8.102H6v2.847zm10.51 0H18V8.102h-1.49v2.847z"
          fill="currentColor"
          fill-rule="evenodd"
        />
  </symbol>
  <symbol id="n8n" viewBox="0 0 24 24">
    <path
          d="M21.4737 5.6842c-1.1772 0-2.1663.8051-2.4468 1.8947h-2.8955c-1.235 0-2.289.893-2.492 2.111l-.1038.623a1.263 1.263 0 0 1-1.246 1.0555H11.289c-.2805-1.0896-1.2696-1.8947-2.4468-1.8947s-2.1663.8051-2.4467 1.8947H4.973c-.2805-1.0896-1.2696-1.8947-2.4468-1.8947C1.1311 9.4737 0 10.6047 0 12s1.131 2.5263 2.5263 2.5263c1.1772 0 2.1663-.8051 2.4468-1.8947h1.4223c.2804 1.0896 1.2696 1.8947 2.4467 1.8947 1.1772 0 2.1663-.8051 2.4468-1.8947h1.0008a1.263 1.263 0 0 1 1.2459 1.0555l.1038.623c.203 1.218 1.257 2.111 2.492 2.111h.3692c.2804 1.0895 1.2696 1.8947 2.4468 1.8947 1.3952 0 2.5263-1.131 2.5263-2.5263s-1.131-2.5263-2.5263-2.5263c-1.1772 0-2.1664.805-2.4468 1.8947h-.3692a1.263 1.263 0 0 1-1.246-1.0555l-.1037-.623A2.52 2.52 0 0 0 13.9607 12a2.52 2.52 0 0 0 .821-1.4794l.1038-.623a1.263 1.263 0 0 1 1.2459-1.0555h2.8955c.2805 1.0896 1.2696 1.8947 2.4468 1.8947 1.3952 0 2.5263-1.131 2.5263-2.5263s-1.131-2.5263-2.5263-2.5263m0 1.2632a1.263 1.263 0 0 1 1.2631 1.2631 1.263 1.263 0 0 1-1.2631 1.2632 1.263 1.263 0 0 1-1.2632-1.2632 1.263 1.263 0 0 1 1.2632-1.2631M2.5263 10.7368A1.263 1.263 0 0 1 3.7895 12a1.263 1.263 0 0 1-1.2632 1.2632A1.263 1.263 0 0 1 1.2632 12a1.263 1.263 0 0 1 1.2631-1.2632m6.3158 0A1.263 1.263 0 0 1 10.1053 12a1.263 1.263 0 0 1-1.2632 1.2632A1.263 1.263 0 0 1 7.579 12a1.263 1.263 0 0 1 1.2632-1.2632m10.1053 3.7895a1.263 1.263 0 0 1 1.2631 1.2632 1.263 1.263 0 0 1-1.2631 1.2631 1.263 1.263 0 0 1-1.2632-1.2631 1.263 1.263 0 0 1 1.2632-1.2632"
          fill="currentColor"
        />
  </symbol>
  <symbol id="agy" viewBox="0 0 24 24">
    <path
          d="M9.02 3.29 L9.89 2.51 L10.92 1.99 L12.73 1.91 L14.2 2.51 L15.24 3.55 L16.18 5.1 L17.13 7.51 L18.86 13.73 L19.81 16.4 L20.84 18.47 L21.62 19.59 L22.74 20.8 L23 21.32 L22.91 21.84 L22.48 22.09 L21.79 22.09 L20.67 21.49 L19.72 20.71 L18.34 19.16 L15.84 15.02 L14.55 13.55 L12.91 12.78 L11.18 12.78 L9.89 13.29 L8.68 14.42 L5.66 19.25 L3.85 21.15 L2.29 22.09 L1.35 22.09 L1.09 21.92 L1.09 21.15 L3.07 18.73 L4.36 16.14 L5.31 13.38 L7.3 6.48 L8.25 4.41 L9.02 3.37Z"
          fill="currentColor"
        />
  </symbol>
  <symbol id="kiro" viewBox="0 0 24 24">
    <path
          d="M7.72 3.3 L8.46 2.56 L9.45 1.86 L10.4 1.41 L11.79 1.04 L13.36 1 L14.14 1.12 L15.33 1.49 L16.36 2.03 L17.18 2.64 L18.17 3.67 L18.79 4.58 L19.32 5.65 L19.77 7 L19.98 7.99 L20.18 9.55 L20.27 11.28 L20.18 13.25 L19.94 15.02 L19.57 16.63 L19.11 18.02 L18.54 19.38 L18.04 20.29 L17.47 21.07 L16.52 22.01 L15.62 22.63 L14.59 23 L13.97 23 L13.32 22.71 L12.9 22.26 L12.53 21.44 L11.18 22.38 L10.56 22.67 L9.74 22.92 L9.04 23 L8.38 22.96 L7.93 22.84 L7.35 22.55 L6.98 22.22 L6.65 21.73 L6.41 20.86 L6.45 19.67 L6.9 18.11 L6.82 18.07 L6.41 18.27 L5.46 18.52 L4.93 18.52 L4.47 18.39 L4.02 18.02 L3.86 17.74 L3.73 16.83 L3.94 16.01 L4.72 14.41 L5.05 13.34 L5.3 11.94 L5.67 8.24 L6.04 6.59 L6.28 5.81 L6.82 4.62 L7.39 3.71 L7.72 3.34Z M12.66 7.09 L12.25 7.41 L12.08 7.7 L11.92 8.53 L11.92 9.31 L12.16 10.17 L12.45 10.5 L12.74 10.62 L13.11 10.62 L13.4 10.5 L13.77 10.09 L13.97 9.35 L13.97 8.36 L13.89 7.95 L13.69 7.5 L13.27 7.13 L12.7 7.09Z M16.11 7.09 L15.87 7.21 L15.58 7.54 L15.41 8.03 L15.33 8.98 L15.5 9.96 L15.62 10.21 L15.95 10.54 L16.15 10.62 L16.69 10.58 L17.1 10.21 L17.3 9.8 L17.43 9.02 L17.39 8.28 L17.14 7.54 L16.69 7.13 L16.15 7.09Z"
          fill="currentColor"
          fill-rule="evenodd"
        />
  </symbol>
  <symbol id="ml" viewBox="0 0 24 24">
    <path d="M 22.681 20.841 L 22.681 19.129 C 22.723 19.118 22.765 19.105 22.806 19.091 C 22.847 19.077 22.887 19.061 22.927 19.043 C 22.967 19.026 23.006 19.006 23.044 18.986 C 23.082 18.965 23.119 18.942 23.156 18.918 C 23.192 18.894 23.227 18.869 23.261 18.842 C 23.296 18.815 23.329 18.787 23.361 18.757 C 23.392 18.727 23.423 18.696 23.452 18.664 C 23.482 18.632 23.51 18.598 23.536 18.564 C 23.563 18.529 23.588 18.493 23.612 18.457 C 23.636 18.42 23.658 18.382 23.679 18.344 C 23.699 18.305 23.718 18.266 23.736 18.226 C 23.753 18.186 23.769 18.145 23.783 18.103 C 23.797 18.062 23.809 18.02 23.82 17.978 C 23.831 17.935 23.84 17.892 23.847 17.849 C 23.854 17.806 23.859 17.762 23.863 17.719 C 23.866 17.675 23.868 17.631 23.868 17.587 C 23.868 17.544 23.866 17.5 23.863 17.456 C 23.859 17.412 23.854 17.369 23.847 17.326 C 23.84 17.283 23.831 17.24 23.82 17.197 C 23.809 17.155 23.797 17.113 23.783 17.071 C 23.769 17.03 23.753 16.989 23.736 16.949 C 23.718 16.909 23.699 16.869 23.679 16.831 C 23.658 16.792 23.636 16.755 23.612 16.718 C 23.588 16.681 23.563 16.646 23.536 16.611 C 23.51 16.576 23.482 16.543 23.452 16.511 C 23.423 16.478 23.392 16.447 23.361 16.418 C 23.329 16.388 23.296 16.36 23.261 16.333 C 23.227 16.306 23.192 16.28 23.156 16.256 C 23.119 16.232 23.082 16.21 23.044 16.189 C 23.006 16.168 22.967 16.149 22.927 16.131 C 22.887 16.114 22.847 16.098 22.806 16.083 C 22.765 16.069 22.723 16.057 22.681 16.046 L 22.681 13.591 C 22.681 13.578 22.681 13.565 22.679 13.552 C 22.678 13.539 22.676 13.526 22.674 13.513 C 22.671 13.501 22.668 13.488 22.664 13.475 C 22.66 13.463 22.656 13.451 22.651 13.438 C 22.646 13.426 22.641 13.414 22.635 13.403 C 22.628 13.391 22.622 13.38 22.615 13.369 C 22.607 13.358 22.6 13.348 22.591 13.338 C 22.583 13.328 22.575 13.318 22.565 13.309 C 22.556 13.3 22.547 13.291 22.537 13.282 C 22.527 13.274 22.516 13.266 22.505 13.259 C 22.495 13.252 22.484 13.245 22.472 13.239 C 22.461 13.233 22.449 13.227 22.437 13.222 C 22.425 13.217 22.413 13.213 22.401 13.209 C 22.388 13.205 22.376 13.202 22.363 13.199 C 22.35 13.197 22.337 13.195 22.324 13.194 C 22.312 13.192 22.299 13.192 22.286 13.192 L 19.121 13.192 L 19.121 10.338 C 19.163 10.327 19.204 10.314 19.245 10.3 C 19.286 10.286 19.327 10.27 19.367 10.252 C 19.406 10.235 19.445 10.215 19.483 10.194 C 19.522 10.174 19.559 10.151 19.595 10.127 C 19.631 10.103 19.667 10.078 19.701 10.051 C 19.735 10.024 19.768 9.995 19.8 9.966 C 19.832 9.936 19.863 9.905 19.892 9.873 C 19.921 9.841 19.949 9.807 19.976 9.773 C 20.003 9.738 20.028 9.702 20.052 9.666 C 20.075 9.629 20.098 9.591 20.118 9.553 C 20.139 9.514 20.158 9.475 20.175 9.435 C 20.193 9.395 20.208 9.354 20.222 9.312 C 20.237 9.271 20.249 9.229 20.26 9.186 C 20.27 9.144 20.279 9.101 20.286 9.058 C 20.293 9.015 20.299 8.971 20.302 8.927 C 20.306 8.884 20.308 8.84 20.308 8.796 C 20.308 8.752 20.306 8.709 20.302 8.665 C 20.299 8.621 20.293 8.578 20.286 8.535 C 20.279 8.491 20.27 8.448 20.26 8.406 C 20.249 8.363 20.237 8.321 20.222 8.28 C 20.208 8.239 20.193 8.198 20.175 8.158 C 20.158 8.118 20.139 8.078 20.118 8.04 C 20.098 8.001 20.075 7.963 20.052 7.927 C 20.028 7.89 20.003 7.854 19.976 7.82 C 19.949 7.785 19.921 7.752 19.892 7.719 C 19.863 7.687 19.832 7.656 19.8 7.627 C 19.768 7.597 19.735 7.569 19.701 7.542 C 19.667 7.515 19.631 7.489 19.595 7.465 C 19.559 7.441 19.522 7.419 19.483 7.398 C 19.445 7.377 19.406 7.358 19.367 7.34 C 19.327 7.323 19.286 7.307 19.245 7.292 C 19.204 7.278 19.163 7.265 19.121 7.255 L 19.121 5.2 C 19.121 5.187 19.12 5.174 19.119 5.161 C 19.118 5.148 19.116 5.135 19.113 5.122 C 19.111 5.109 19.108 5.096 19.104 5.084 C 19.1 5.071 19.096 5.059 19.091 5.047 C 19.086 5.035 19.08 5.023 19.074 5.011 C 19.068 5 19.061 4.989 19.054 4.978 C 19.047 4.967 19.039 4.956 19.031 4.946 C 19.023 4.936 19.014 4.926 19.005 4.917 C 18.996 4.908 18.986 4.899 18.976 4.891 C 18.966 4.883 18.956 4.875 18.945 4.868 C 18.934 4.86 18.923 4.854 18.912 4.847 C 18.9 4.841 18.889 4.836 18.877 4.831 C 18.865 4.826 18.852 4.821 18.84 4.817 C 18.828 4.814 18.815 4.81 18.802 4.808 C 18.79 4.805 18.777 4.803 18.764 4.802 C 18.751 4.801 18.738 4.8 18.725 4.8 L 12.396 4.8 L 12.396 3.145 C 12.426 3.137 12.457 3.128 12.487 3.118 C 12.517 3.108 12.547 3.097 12.577 3.086 C 12.606 3.074 12.635 3.061 12.664 3.048 C 12.693 3.034 12.722 3.02 12.749 3.005 C 12.777 2.99 12.805 2.974 12.832 2.957 C 12.859 2.94 12.885 2.922 12.911 2.904 C 12.937 2.885 12.963 2.866 12.988 2.846 C 13.012 2.826 13.037 2.805 13.06 2.784 C 13.084 2.762 13.107 2.74 13.129 2.717 C 13.151 2.694 13.173 2.671 13.194 2.647 C 13.214 2.622 13.235 2.598 13.254 2.572 C 13.273 2.547 13.292 2.521 13.31 2.494 C 13.327 2.468 13.345 2.441 13.361 2.413 C 13.377 2.385 13.392 2.357 13.407 2.329 C 13.421 2.3 13.435 2.272 13.448 2.242 C 13.461 2.213 13.473 2.183 13.484 2.153 C 13.495 2.123 13.505 2.093 13.514 2.062 C 13.523 2.031 13.532 2 13.539 1.969 C 13.546 1.938 13.553 1.906 13.558 1.875 C 13.564 1.843 13.568 1.812 13.572 1.78 C 13.576 1.748 13.578 1.716 13.58 1.684 C 13.582 1.652 13.583 1.62 13.582 1.588 C 13.582 1.556 13.581 1.524 13.579 1.492 C 13.577 1.46 13.574 1.428 13.57 1.396 C 13.566 1.364 13.561 1.332 13.555 1.301 C 13.549 1.269 13.542 1.238 13.535 1.207 C 13.527 1.176 13.518 1.145 13.509 1.114 C 13.499 1.084 13.488 1.054 13.477 1.024 C 13.466 0.994 13.453 0.964 13.44 0.935 C 13.427 0.906 13.413 0.877 13.398 0.849 C 13.383 0.82 13.368 0.792 13.351 0.765 C 13.334 0.738 13.317 0.711 13.299 0.684 C 13.281 0.658 13.262 0.632 13.242 0.607 C 13.223 0.582 13.202 0.557 13.181 0.533 C 13.16 0.509 13.138 0.486 13.116 0.464 C 13.093 0.441 13.07 0.419 13.046 0.398 C 13.022 0.377 12.998 0.356 12.973 0.336 C 12.948 0.317 12.922 0.298 12.896 0.28 C 12.87 0.262 12.843 0.244 12.816 0.228 C 12.789 0.211 12.761 0.195 12.733 0.181 C 12.705 0.166 12.676 0.152 12.647 0.139 C 12.618 0.125 12.589 0.113 12.559 0.102 C 12.529 0.091 12.499 0.08 12.469 0.071 C 12.439 0.061 12.408 0.053 12.377 0.045 C 12.346 0.037 12.315 0.031 12.284 0.025 C 12.253 0.019 12.222 0.014 12.19 0.01 C 12.159 0.007 12.127 0.004 12.095 0.002 C 12.064 0 12.032 -0.001 12 -0.001 C 11.968 -0.001 11.936 0 11.905 0.002 C 11.873 0.004 11.841 0.007 11.81 0.01 C 11.778 0.014 11.747 0.019 11.716 0.025 C 11.685 0.031 11.654 0.037 11.623 0.045 C 11.592 0.053 11.561 0.061 11.531 0.071 C 11.501 0.08 11.471 0.091 11.441 0.102 C 11.411 0.113 11.382 0.125 11.353 0.139 C 11.324 0.152 11.295 0.166 11.267 0.181 C 11.239 0.195 11.211 0.211 11.184 0.228 C 11.157 0.244 11.13 0.262 11.104 0.28 C 11.078 0.298 11.052 0.317 11.027 0.336 C 11.002 0.356 10.978 0.377 10.954 0.398 C 10.93 0.419 10.907 0.441 10.884 0.464 C 10.862 0.486 10.84 0.509 10.819 0.533 C 10.798 0.557 10.777 0.582 10.758 0.607 C 10.738 0.632 10.719 0.658 10.701 0.684 C 10.683 0.711 10.666 0.738 10.649 0.765 C 10.632 0.792 10.617 0.82 10.602 0.849 C 10.587 0.877 10.573 0.906 10.56 0.935 C 10.547 0.964 10.534 0.994 10.523 1.024 C 10.512 1.054 10.501 1.084 10.491 1.114 C 10.482 1.145 10.473 1.176 10.465 1.207 C 10.458 1.238 10.451 1.269 10.445 1.301 C 10.439 1.332 10.434 1.364 10.43 1.396 C 10.426 1.428 10.423 1.46 10.421 1.492 C 10.419 1.524 10.418 1.556 10.418 1.588 C 10.417 1.62 10.418 1.652 10.42 1.684 C 10.422 1.716 10.424 1.748 10.428 1.78 C 10.432 1.812 10.436 1.843 10.442 1.875 C 10.447 1.906 10.454 1.938 10.461 1.969 C 10.468 2 10.477 2.031 10.486 2.062 C 10.495 2.093 10.505 2.123 10.516 2.153 C 10.527 2.183 10.539 2.213 10.552 2.242 C 10.565 2.272 10.579 2.3 10.593 2.329 C 10.608 2.357 10.623 2.385 10.639 2.413 C 10.655 2.441 10.673 2.468 10.69 2.494 C 10.708 2.521 10.727 2.547 10.746 2.572 C 10.765 2.598 10.786 2.622 10.806 2.647 C 10.827 2.671 10.849 2.694 10.871 2.717 C 10.893 2.74 10.916 2.762 10.94 2.784 C 10.963 2.805 10.988 2.826 11.012 2.846 C 11.037 2.866 11.063 2.885 11.089 2.904 C 11.115 2.922 11.141 2.94 11.168 2.957 C 11.195 2.974 11.223 2.99 11.251 3.005 C 11.278 3.02 11.307 3.034 11.336 3.048 C 11.365 3.061 11.394 3.074 11.423 3.086 C 11.453 3.097 11.483 3.108 11.513 3.118 C 11.543 3.128 11.574 3.137 11.604 3.145 L 11.604 4.8 L 5.275 4.8 C 5.262 4.8 5.249 4.801 5.236 4.802 C 5.223 4.803 5.21 4.805 5.198 4.808 C 5.185 4.81 5.172 4.814 5.16 4.817 C 5.148 4.821 5.135 4.826 5.123 4.831 C 5.111 4.836 5.1 4.841 5.088 4.847 C 5.077 4.854 5.066 4.86 5.055 4.868 C 5.044 4.875 5.034 4.883 5.024 4.891 C 5.014 4.899 5.004 4.908 4.995 4.917 C 4.986 4.926 4.977 4.936 4.969 4.946 C 4.961 4.956 4.953 4.967 4.946 4.978 C 4.939 4.989 4.932 5 4.926 5.011 C 4.92 5.023 4.914 5.035 4.909 5.047 C 4.904 5.059 4.9 5.071 4.896 5.084 C 4.892 5.096 4.889 5.109 4.887 5.122 C 4.884 5.135 4.882 5.148 4.881 5.161 C 4.88 5.174 4.879 5.187 4.879 5.2 L 4.879 7.255 C 4.837 7.265 4.796 7.278 4.755 7.292 C 4.714 7.307 4.673 7.323 4.633 7.34 C 4.594 7.358 4.555 7.377 4.517 7.398 C 4.478 7.419 4.441 7.441 4.405 7.465 C 4.369 7.489 4.333 7.515 4.299 7.542 C 4.265 7.569 4.232 7.597 4.2 7.627 C 4.168 7.656 4.137 7.687 4.108 7.719 C 4.079 7.752 4.051 7.785 4.024 7.82 C 3.997 7.854 3.972 7.89 3.948 7.927 C 3.925 7.963 3.902 8.001 3.882 8.04 C 3.861 8.078 3.842 8.118 3.825 8.158 C 3.807 8.198 3.792 8.239 3.778 8.28 C 3.763 8.321 3.751 8.363 3.74 8.406 C 3.73 8.448 3.721 8.491 3.714 8.535 C 3.707 8.578 3.701 8.621 3.698 8.665 C 3.694 8.709 3.692 8.752 3.692 8.796 C 3.692 8.84 3.694 8.884 3.698 8.927 C 3.701 8.971 3.707 9.015 3.714 9.058 C 3.721 9.101 3.73 9.144 3.74 9.186 C 3.751 9.229 3.763 9.271 3.778 9.312 C 3.792 9.354 3.807 9.395 3.825 9.435 C 3.842 9.475 3.861 9.514 3.882 9.553 C 3.902 9.591 3.925 9.629 3.948 9.666 C 3.972 9.702 3.997 9.738 4.024 9.773 C 4.051 9.807 4.079 9.841 4.108 9.873 C 4.137 9.905 4.168 9.936 4.2 9.966 C 4.232 9.995 4.265 10.024 4.299 10.051 C 4.333 10.078 4.369 10.103 4.405 10.127 C 4.441 10.151 4.478 10.174 4.517 10.194 C 4.555 10.215 4.594 10.235 4.633 10.252 C 4.673 10.27 4.714 10.286 4.755 10.3 C 4.796 10.314 4.837 10.327 4.879 10.338 L 4.879 13.192 L 1.714 13.192 C 1.701 13.192 1.688 13.192 1.676 13.194 C 1.663 13.195 1.65 13.197 1.637 13.199 C 1.624 13.202 1.612 13.205 1.599 13.209 C 1.587 13.213 1.575 13.217 1.563 13.222 C 1.551 13.227 1.539 13.233 1.528 13.239 C 1.516 13.245 1.505 13.252 1.495 13.259 C 1.484 13.266 1.473 13.274 1.463 13.282 C 1.453 13.291 1.444 13.3 1.435 13.309 C 1.425 13.318 1.417 13.328 1.409 13.338 C 1.4 13.348 1.393 13.358 1.385 13.369 C 1.378 13.38 1.372 13.391 1.365 13.403 C 1.359 13.414 1.354 13.426 1.349 13.438 C 1.344 13.451 1.34 13.463 1.336 13.475 C 1.332 13.488 1.329 13.501 1.326 13.513 C 1.324 13.526 1.322 13.539 1.321 13.552 C 1.319 13.565 1.319 13.578 1.319 13.591 L 1.319 16.046 C 1.277 16.057 1.235 16.069 1.194 16.083 C 1.153 16.098 1.113 16.114 1.073 16.131 C 1.033 16.149 0.994 16.168 0.956 16.189 C 0.918 16.21 0.881 16.232 0.844 16.256 C 0.808 16.28 0.773 16.306 0.739 16.333 C 0.704 16.36 0.671 16.388 0.639 16.418 C 0.608 16.447 0.577 16.478 0.548 16.511 C 0.518 16.543 0.49 16.576 0.464 16.611 C 0.437 16.646 0.412 16.681 0.388 16.718 C 0.364 16.755 0.342 16.792 0.321 16.831 C 0.301 16.869 0.282 16.909 0.264 16.949 C 0.247 16.989 0.231 17.03 0.217 17.071 C 0.203 17.113 0.191 17.155 0.18 17.197 C 0.169 17.24 0.16 17.283 0.153 17.326 C 0.146 17.369 0.141 17.412 0.137 17.456 C 0.134 17.5 0.132 17.544 0.132 17.587 C 0.132 17.631 0.134 17.675 0.137 17.719 C 0.141 17.762 0.146 17.806 0.153 17.849 C 0.16 17.892 0.169 17.935 0.18 17.978 C 0.191 18.02 0.203 18.062 0.217 18.103 C 0.231 18.145 0.247 18.186 0.264 18.226 C 0.282 18.266 0.301 18.305 0.321 18.344 C 0.342 18.382 0.364 18.42 0.388 18.457 C 0.412 18.493 0.437 18.529 0.464 18.564 C 0.49 18.598 0.518 18.632 0.548 18.664 C 0.577 18.696 0.608 18.727 0.639 18.757 C 0.671 18.787 0.704 18.815 0.739 18.842 C 0.773 18.869 0.808 18.894 0.844 18.918 C 0.881 18.942 0.918 18.965 0.956 18.986 C 0.994 19.006 1.033 19.026 1.073 19.043 C 1.113 19.061 1.153 19.077 1.194 19.091 C 1.235 19.105 1.277 19.118 1.319 19.129 L 1.319 20.841 C 1.288 20.849 1.258 20.858 1.227 20.868 C 1.197 20.878 1.167 20.889 1.138 20.9 C 1.108 20.912 1.079 20.925 1.05 20.938 C 1.021 20.951 0.993 20.966 0.965 20.981 C 0.937 20.996 0.909 21.012 0.882 21.029 C 0.855 21.046 0.829 21.064 0.803 21.082 C 0.777 21.101 0.752 21.12 0.727 21.14 C 0.702 21.16 0.678 21.181 0.654 21.202 C 0.631 21.224 0.608 21.246 0.585 21.269 C 0.563 21.292 0.542 21.315 0.521 21.339 C 0.5 21.363 0.48 21.388 0.46 21.414 C 0.441 21.439 0.423 21.465 0.405 21.492 C 0.387 21.518 0.37 21.545 0.354 21.573 C 0.337 21.6 0.322 21.628 0.307 21.657 C 0.293 21.685 0.279 21.714 0.266 21.744 C 0.254 21.773 0.242 21.803 0.231 21.833 C 0.22 21.863 0.21 21.893 0.2 21.924 C 0.191 21.955 0.183 21.986 0.175 22.017 C 0.168 22.048 0.161 22.079 0.156 22.111 C 0.151 22.143 0.146 22.174 0.142 22.206 C 0.139 22.238 0.136 22.27 0.134 22.302 C 0.133 22.334 0.132 22.366 0.132 22.398 C 0.132 22.43 0.133 22.462 0.135 22.494 C 0.138 22.526 0.141 22.558 0.145 22.59 C 0.149 22.622 0.153 22.654 0.159 22.685 C 0.165 22.717 0.172 22.748 0.18 22.779 C 0.188 22.81 0.196 22.841 0.206 22.872 C 0.215 22.902 0.226 22.932 0.237 22.962 C 0.249 22.992 0.261 23.022 0.274 23.051 C 0.287 23.08 0.301 23.109 0.316 23.137 C 0.331 23.166 0.347 23.194 0.363 23.221 C 0.38 23.248 0.397 23.275 0.415 23.302 C 0.434 23.328 0.452 23.354 0.472 23.379 C 0.492 23.404 0.512 23.429 0.533 23.453 C 0.554 23.476 0.576 23.5 0.599 23.522 C 0.621 23.545 0.644 23.567 0.668 23.588 C 0.692 23.609 0.717 23.63 0.742 23.649 C 0.767 23.669 0.792 23.688 0.818 23.706 C 0.845 23.724 0.871 23.742 0.899 23.758 C 0.926 23.775 0.953 23.791 0.982 23.805 C 1.01 23.82 1.038 23.834 1.067 23.847 C 1.096 23.86 1.126 23.873 1.155 23.884 C 1.185 23.895 1.215 23.906 1.245 23.915 C 1.276 23.925 1.306 23.933 1.337 23.941 C 1.368 23.949 1.399 23.955 1.43 23.961 C 1.461 23.967 1.493 23.972 1.524 23.976 C 1.556 23.979 1.587 23.982 1.619 23.984 C 1.651 23.986 1.683 23.987 1.714 23.987 C 1.746 23.987 1.778 23.986 1.81 23.984 C 1.841 23.982 1.873 23.979 1.904 23.976 C 1.936 23.972 1.967 23.967 1.999 23.961 C 2.03 23.955 2.061 23.949 2.092 23.941 C 2.122 23.933 2.153 23.925 2.183 23.915 C 2.214 23.906 2.244 23.895 2.273 23.884 C 2.303 23.873 2.332 23.86 2.361 23.847 C 2.39 23.834 2.419 23.82 2.447 23.805 C 2.475 23.791 2.503 23.775 2.53 23.758 C 2.557 23.742 2.584 23.724 2.61 23.706 C 2.636 23.688 2.662 23.669 2.687 23.649 C 2.712 23.63 2.737 23.609 2.76 23.588 C 2.784 23.567 2.807 23.545 2.83 23.522 C 2.852 23.5 2.874 23.476 2.895 23.453 C 2.917 23.429 2.937 23.404 2.957 23.379 C 2.976 23.354 2.995 23.328 3.013 23.302 C 3.031 23.275 3.049 23.248 3.065 23.221 C 3.082 23.194 3.098 23.166 3.112 23.137 C 3.127 23.109 3.141 23.08 3.155 23.051 C 3.168 23.022 3.18 22.992 3.191 22.962 C 3.203 22.932 3.213 22.902 3.223 22.872 C 3.232 22.841 3.241 22.81 3.249 22.779 C 3.257 22.748 3.263 22.717 3.269 22.685 C 3.275 22.654 3.28 22.622 3.284 22.59 C 3.288 22.558 3.291 22.526 3.293 22.494 C 3.295 22.462 3.297 22.43 3.297 22.398 C 3.297 22.366 3.296 22.334 3.294 22.302 C 3.293 22.27 3.29 22.238 3.286 22.206 C 3.283 22.174 3.278 22.143 3.273 22.111 C 3.267 22.079 3.261 22.048 3.253 22.017 C 3.246 21.986 3.238 21.955 3.228 21.924 C 3.219 21.893 3.209 21.863 3.198 21.833 C 3.187 21.803 3.175 21.773 3.162 21.744 C 3.149 21.714 3.136 21.685 3.121 21.657 C 3.107 21.628 3.091 21.6 3.075 21.573 C 3.059 21.545 3.042 21.518 3.024 21.492 C 3.006 21.465 2.988 21.439 2.968 21.414 C 2.949 21.388 2.929 21.363 2.908 21.339 C 2.887 21.315 2.865 21.292 2.843 21.269 C 2.821 21.246 2.798 21.224 2.774 21.202 C 2.751 21.181 2.727 21.16 2.702 21.14 C 2.677 21.12 2.652 21.101 2.626 21.082 C 2.6 21.064 2.573 21.046 2.546 21.029 C 2.519 21.012 2.492 20.996 2.464 20.981 C 2.436 20.966 2.407 20.951 2.379 20.938 C 2.35 20.925 2.321 20.912 2.291 20.9 C 2.261 20.889 2.232 20.878 2.201 20.868 C 2.171 20.858 2.141 20.849 2.11 20.841 L 2.11 19.129 C 2.152 19.118 2.194 19.105 2.235 19.091 C 2.276 19.077 2.316 19.061 2.356 19.043 C 2.395 19.026 2.434 19.006 2.473 18.986 C 2.511 18.965 2.548 18.942 2.584 18.918 C 2.62 18.894 2.656 18.869 2.69 18.842 C 2.724 18.815 2.757 18.787 2.789 18.757 C 2.821 18.727 2.852 18.696 2.881 18.664 C 2.911 18.632 2.939 18.598 2.965 18.564 C 2.992 18.529 3.017 18.493 3.041 18.457 C 3.064 18.42 3.087 18.382 3.107 18.344 C 3.128 18.305 3.147 18.266 3.164 18.226 C 3.182 18.186 3.198 18.145 3.212 18.103 C 3.226 18.062 3.238 18.02 3.249 17.978 C 3.259 17.935 3.268 17.892 3.275 17.849 C 3.282 17.806 3.288 17.762 3.291 17.719 C 3.295 17.675 3.297 17.631 3.297 17.587 C 3.297 17.544 3.295 17.5 3.291 17.456 C 3.288 17.412 3.282 17.369 3.275 17.326 C 3.268 17.283 3.259 17.24 3.249 17.197 C 3.238 17.155 3.226 17.113 3.212 17.071 C 3.198 17.03 3.182 16.989 3.164 16.949 C 3.147 16.909 3.128 16.869 3.107 16.831 C 3.087 16.792 3.064 16.755 3.041 16.718 C 3.017 16.681 2.992 16.646 2.965 16.611 C 2.939 16.576 2.911 16.543 2.881 16.511 C 2.852 16.478 2.821 16.447 2.789 16.418 C 2.757 16.388 2.724 16.36 2.69 16.333 C 2.656 16.306 2.62 16.28 2.584 16.256 C 2.548 16.232 2.511 16.21 2.473 16.189 C 2.434 16.168 2.395 16.149 2.356 16.131 C 2.316 16.114 2.276 16.098 2.235 16.083 C 2.194 16.069 2.152 16.057 2.11 16.046 L 2.11 13.991 L 8.44 13.991 L 8.44 16.046 C 8.398 16.057 8.356 16.069 8.315 16.083 C 8.274 16.098 8.234 16.114 8.194 16.131 C 8.154 16.149 8.115 16.168 8.077 16.189 C 8.039 16.21 8.002 16.232 7.965 16.256 C 7.929 16.28 7.894 16.306 7.86 16.333 C 7.825 16.36 7.792 16.388 7.76 16.418 C 7.728 16.447 7.698 16.478 7.668 16.511 C 7.639 16.543 7.611 16.576 7.584 16.611 C 7.558 16.646 7.533 16.681 7.509 16.718 C 7.485 16.755 7.463 16.792 7.442 16.831 C 7.422 16.869 7.403 16.909 7.385 16.949 C 7.368 16.989 7.352 17.03 7.338 17.071 C 7.324 17.113 7.311 17.155 7.301 17.197 C 7.29 17.24 7.281 17.283 7.274 17.326 C 7.267 17.369 7.262 17.412 7.258 17.456 C 7.255 17.5 7.253 17.544 7.253 17.587 C 7.253 17.631 7.255 17.675 7.258 17.719 C 7.262 17.762 7.267 17.806 7.274 17.849 C 7.281 17.892 7.29 17.935 7.301 17.978 C 7.311 18.02 7.324 18.062 7.338 18.103 C 7.352 18.145 7.368 18.186 7.385 18.226 C 7.403 18.266 7.422 18.305 7.442 18.344 C 7.463 18.382 7.485 18.42 7.509 18.457 C 7.533 18.493 7.558 18.529 7.584 18.564 C 7.611 18.598 7.639 18.632 7.668 18.664 C 7.698 18.696 7.728 18.727 7.76 18.757 C 7.792 18.787 7.825 18.815 7.86 18.842 C 7.894 18.869 7.929 18.894 7.965 18.918 C 8.002 18.942 8.039 18.965 8.077 18.986 C 8.115 19.006 8.154 19.026 8.194 19.043 C 8.234 19.061 8.274 19.077 8.315 19.091 C 8.356 19.105 8.398 19.118 8.44 19.129 L 8.44 20.841 C 8.409 20.849 8.378 20.858 8.348 20.868 C 8.318 20.878 8.288 20.889 8.258 20.9 C 8.229 20.912 8.2 20.925 8.171 20.938 C 8.142 20.951 8.114 20.966 8.086 20.981 C 8.058 20.996 8.03 21.012 8.003 21.029 C 7.976 21.046 7.95 21.064 7.924 21.082 C 7.898 21.101 7.872 21.12 7.848 21.14 C 7.823 21.16 7.799 21.181 7.775 21.202 C 7.751 21.224 7.729 21.246 7.706 21.269 C 7.684 21.292 7.662 21.315 7.642 21.339 C 7.621 21.363 7.601 21.388 7.581 21.414 C 7.562 21.439 7.543 21.465 7.526 21.492 C 7.508 21.518 7.491 21.545 7.474 21.573 C 7.458 21.6 7.443 21.628 7.428 21.657 C 7.414 21.685 7.4 21.714 7.387 21.744 C 7.374 21.773 7.363 21.803 7.352 21.833 C 7.34 21.863 7.33 21.893 7.321 21.924 C 7.312 21.955 7.304 21.986 7.296 22.017 C 7.289 22.048 7.282 22.079 7.277 22.111 C 7.271 22.143 7.267 22.174 7.263 22.206 C 7.26 22.238 7.257 22.27 7.255 22.302 C 7.253 22.334 7.253 22.366 7.253 22.398 C 7.253 22.43 7.254 22.462 7.256 22.494 C 7.258 22.526 7.261 22.558 7.265 22.59 C 7.269 22.622 7.274 22.654 7.28 22.685 C 7.286 22.717 7.293 22.748 7.301 22.779 C 7.308 22.81 7.317 22.841 7.327 22.872 C 7.336 22.902 7.347 22.932 7.358 22.962 C 7.37 22.992 7.382 23.022 7.395 23.051 C 7.408 23.08 7.422 23.109 7.437 23.137 C 7.452 23.166 7.468 23.194 7.484 23.221 C 7.501 23.248 7.518 23.275 7.536 23.302 C 7.554 23.328 7.573 23.354 7.593 23.379 C 7.613 23.404 7.633 23.429 7.654 23.453 C 7.675 23.476 7.697 23.5 7.72 23.522 C 7.742 23.545 7.765 23.567 7.789 23.588 C 7.813 23.609 7.837 23.63 7.862 23.649 C 7.888 23.669 7.913 23.688 7.939 23.706 C 7.965 23.724 7.992 23.742 8.019 23.758 C 8.047 23.775 8.074 23.791 8.102 23.805 C 8.131 23.82 8.159 23.834 8.188 23.847 C 8.217 23.86 8.246 23.873 8.276 23.884 C 8.306 23.895 8.336 23.906 8.366 23.915 C 8.397 23.925 8.427 23.933 8.458 23.941 C 8.489 23.949 8.52 23.955 8.551 23.961 C 8.582 23.967 8.614 23.972 8.645 23.976 C 8.677 23.979 8.708 23.982 8.74 23.984 C 8.772 23.986 8.803 23.987 8.835 23.987 C 8.867 23.987 8.899 23.986 8.93 23.984 C 8.962 23.982 8.994 23.979 9.025 23.976 C 9.057 23.972 9.088 23.967 9.119 23.961 C 9.151 23.955 9.182 23.949 9.213 23.941 C 9.243 23.933 9.274 23.925 9.304 23.915 C 9.335 23.906 9.365 23.895 9.394 23.884 C 9.424 23.873 9.453 23.86 9.482 23.847 C 9.511 23.834 9.54 23.82 9.568 23.805 C 9.596 23.791 9.624 23.775 9.651 23.758 C 9.678 23.742 9.705 23.724 9.731 23.706 C 9.757 23.688 9.783 23.669 9.808 23.649 C 9.833 23.63 9.857 23.609 9.881 23.588 C 9.905 23.567 9.928 23.545 9.951 23.522 C 9.973 23.5 9.995 23.476 10.016 23.453 C 10.037 23.429 10.058 23.404 10.077 23.379 C 10.097 23.354 10.116 23.328 10.134 23.302 C 10.152 23.275 10.17 23.248 10.186 23.221 C 10.203 23.194 10.218 23.166 10.233 23.137 C 10.248 23.109 10.262 23.08 10.275 23.051 C 10.289 23.022 10.301 22.992 10.312 22.962 C 10.324 22.932 10.334 22.902 10.344 22.872 C 10.353 22.841 10.362 22.81 10.37 22.779 C 10.377 22.748 10.384 22.717 10.39 22.685 C 10.396 22.654 10.401 22.622 10.405 22.59 C 10.409 22.558 10.412 22.526 10.414 22.494 C 10.416 22.462 10.417 22.43 10.418 22.398 C 10.418 22.366 10.417 22.334 10.415 22.302 C 10.414 22.27 10.411 22.238 10.407 22.206 C 10.404 22.174 10.399 22.143 10.394 22.111 C 10.388 22.079 10.382 22.048 10.374 22.017 C 10.367 21.986 10.359 21.955 10.349 21.924 C 10.34 21.893 10.33 21.863 10.319 21.833 C 10.308 21.803 10.296 21.773 10.283 21.744 C 10.27 21.714 10.257 21.685 10.242 21.657 C 10.227 21.628 10.212 21.6 10.196 21.573 C 10.18 21.545 10.163 21.518 10.145 21.492 C 10.127 21.465 10.108 21.439 10.089 21.414 C 10.07 21.388 10.05 21.363 10.029 21.339 C 10.008 21.315 9.986 21.292 9.964 21.269 C 9.942 21.246 9.919 21.224 9.895 21.202 C 9.872 21.181 9.848 21.16 9.823 21.14 C 9.798 21.12 9.773 21.101 9.747 21.082 C 9.721 21.064 9.694 21.046 9.667 21.029 C 9.64 21.012 9.613 20.996 9.585 20.981 C 9.557 20.966 9.528 20.951 9.499 20.938 C 9.471 20.925 9.441 20.912 9.412 20.9 C 9.382 20.889 9.352 20.878 9.322 20.868 C 9.292 20.858 9.262 20.849 9.231 20.841 L 9.231 19.129 C 9.273 19.118 9.314 19.105 9.355 19.091 C 9.396 19.077 9.437 19.061 9.477 19.043 C 9.516 19.026 9.555 19.006 9.593 18.986 C 9.632 18.965 9.669 18.942 9.705 18.918 C 9.741 18.894 9.777 18.869 9.811 18.842 C 9.845 18.815 9.878 18.787 9.91 18.757 C 9.942 18.727 9.973 18.696 10.002 18.664 C 10.031 18.632 10.059 18.598 10.086 18.564 C 10.113 18.529 10.138 18.493 10.162 18.457 C 10.185 18.42 10.207 18.382 10.228 18.344 C 10.249 18.305 10.268 18.266 10.285 18.226 C 10.303 18.186 10.318 18.145 10.332 18.103 C 10.347 18.062 10.359 18.02 10.37 17.978 C 10.38 17.935 10.389 17.892 10.396 17.849 C 10.403 17.806 10.409 17.762 10.412 17.719 C 10.416 17.675 10.418 17.631 10.418 17.587 C 10.418 17.544 10.416 17.5 10.412 17.456 C 10.409 17.412 10.403 17.369 10.396 17.326 C 10.389 17.283 10.38 17.24 10.37 17.197 C 10.359 17.155 10.347 17.113 10.332 17.071 C 10.318 17.03 10.303 16.989 10.285 16.949 C 10.268 16.909 10.249 16.869 10.228 16.831 C 10.207 16.792 10.185 16.755 10.162 16.718 C 10.138 16.681 10.113 16.646 10.086 16.611 C 10.059 16.576 10.031 16.543 10.002 16.511 C 9.973 16.478 9.942 16.447 9.91 16.418 C 9.878 16.388 9.845 16.36 9.811 16.333 C 9.777 16.306 9.741 16.28 9.705 16.256 C 9.669 16.232 9.632 16.21 9.593 16.189 C 9.555 16.168 9.516 16.149 9.477 16.131 C 9.437 16.114 9.396 16.098 9.355 16.083 C 9.314 16.069 9.273 16.057 9.231 16.046 L 9.231 13.591 C 9.231 13.578 9.23 13.565 9.229 13.552 C 9.228 13.539 9.226 13.526 9.223 13.513 C 9.221 13.501 9.218 13.488 9.214 13.475 C 9.21 13.463 9.206 13.451 9.201 13.438 C 9.196 13.426 9.19 13.414 9.184 13.403 C 9.178 13.391 9.171 13.38 9.164 13.369 C 9.157 13.358 9.149 13.348 9.141 13.338 C 9.133 13.328 9.124 13.318 9.115 13.309 C 9.106 13.3 9.096 13.291 9.086 13.282 C 9.076 13.274 9.066 13.266 9.055 13.259 C 9.044 13.252 9.033 13.245 9.022 13.239 C 9.01 13.233 8.999 13.227 8.987 13.222 C 8.975 13.217 8.962 13.213 8.95 13.209 C 8.938 13.205 8.925 13.202 8.912 13.199 C 8.9 13.197 8.887 13.195 8.874 13.194 C 8.861 13.192 8.848 13.192 8.835 13.192 L 5.67 13.192 L 5.67 10.338 C 5.712 10.327 5.754 10.314 5.795 10.3 C 5.836 10.286 5.876 10.27 5.916 10.252 C 5.956 10.235 5.995 10.215 6.033 10.194 C 6.071 10.174 6.108 10.151 6.145 10.127 C 6.181 10.103 6.216 10.078 6.25 10.051 C 6.285 10.024 6.318 9.995 6.35 9.966 C 6.382 9.936 6.412 9.905 6.442 9.873 C 6.471 9.841 6.499 9.807 6.526 9.773 C 6.552 9.738 6.577 9.702 6.601 9.666 C 6.625 9.629 6.647 9.591 6.668 9.553 C 6.688 9.514 6.707 9.475 6.725 9.435 C 6.742 9.395 6.758 9.354 6.772 9.312 C 6.786 9.271 6.798 9.229 6.809 9.186 C 6.82 9.144 6.829 9.101 6.836 9.058 C 6.843 9.015 6.848 8.971 6.852 8.927 C 6.855 8.884 6.857 8.84 6.857 8.796 C 6.857 8.752 6.855 8.709 6.852 8.665 C 6.848 8.621 6.843 8.578 6.836 8.535 C 6.829 8.491 6.82 8.448 6.809 8.406 C 6.798 8.363 6.786 8.321 6.772 8.28 C 6.758 8.239 6.742 8.198 6.725 8.158 C 6.707 8.118 6.688 8.078 6.668 8.04 C 6.647 8.001 6.625 7.963 6.601 7.927 C 6.577 7.89 6.552 7.854 6.526 7.82 C 6.499 7.785 6.471 7.752 6.442 7.719 C 6.412 7.687 6.382 7.656 6.35 7.627 C 6.318 7.597 6.285 7.569 6.25 7.542 C 6.216 7.515 6.181 7.489 6.145 7.465 C 6.108 7.441 6.071 7.419 6.033 7.398 C 5.995 7.377 5.956 7.358 5.916 7.34 C 5.876 7.323 5.836 7.307 5.795 7.292 C 5.754 7.278 5.712 7.265 5.67 7.255 L 5.67 5.599 L 18.33 5.599 L 18.33 7.255 C 18.288 7.265 18.246 7.278 18.205 7.292 C 18.164 7.307 18.124 7.323 18.084 7.34 C 18.044 7.358 18.005 7.377 17.967 7.398 C 17.929 7.419 17.892 7.441 17.855 7.465 C 17.819 7.489 17.784 7.515 17.75 7.542 C 17.715 7.569 17.682 7.597 17.65 7.627 C 17.618 7.656 17.588 7.687 17.558 7.719 C 17.529 7.752 17.501 7.785 17.474 7.82 C 17.448 7.854 17.423 7.89 17.399 7.927 C 17.375 7.963 17.353 8.001 17.332 8.04 C 17.312 8.078 17.293 8.118 17.275 8.158 C 17.258 8.198 17.242 8.239 17.228 8.28 C 17.214 8.321 17.202 8.363 17.191 8.406 C 17.18 8.448 17.171 8.491 17.164 8.535 C 17.157 8.578 17.152 8.621 17.148 8.665 C 17.145 8.709 17.143 8.752 17.143 8.796 C 17.143 8.84 17.145 8.884 17.148 8.927 C 17.152 8.971 17.157 9.015 17.164 9.058 C 17.171 9.101 17.18 9.144 17.191 9.186 C 17.202 9.229 17.214 9.271 17.228 9.312 C 17.242 9.354 17.258 9.395 17.275 9.435 C 17.293 9.475 17.312 9.514 17.332 9.553 C 17.353 9.591 17.375 9.629 17.399 9.666 C 17.423 9.702 17.448 9.738 17.474 9.773 C 17.501 9.807 17.529 9.841 17.558 9.873 C 17.588 9.905 17.618 9.936 17.65 9.966 C 17.682 9.995 17.715 10.024 17.75 10.051 C 17.784 10.078 17.819 10.103 17.855 10.127 C 17.892 10.151 17.929 10.174 17.967 10.194 C 18.005 10.215 18.044 10.235 18.084 10.252 C 18.124 10.27 18.164 10.286 18.205 10.3 C 18.246 10.314 18.288 10.327 18.33 10.338 L 18.33 13.192 L 15.165 13.192 C 15.152 13.192 15.139 13.192 15.126 13.194 C 15.113 13.195 15.1 13.197 15.088 13.199 C 15.075 13.202 15.062 13.205 15.05 13.209 C 15.038 13.213 15.025 13.217 15.013 13.222 C 15.001 13.227 14.99 13.233 14.978 13.239 C 14.967 13.245 14.956 13.252 14.945 13.259 C 14.934 13.266 14.924 13.274 14.914 13.282 C 14.904 13.291 14.894 13.3 14.885 13.309 C 14.876 13.318 14.867 13.328 14.859 13.338 C 14.851 13.348 14.843 13.358 14.836 13.369 C 14.829 13.38 14.822 13.391 14.816 13.403 C 14.81 13.414 14.804 13.426 14.799 13.438 C 14.794 13.451 14.79 13.463 14.786 13.475 C 14.782 13.488 14.779 13.501 14.777 13.513 C 14.774 13.526 14.772 13.539 14.771 13.552 C 14.77 13.565 14.769 13.578 14.769 13.591 L 14.769 16.046 C 14.727 16.057 14.686 16.069 14.645 16.083 C 14.604 16.098 14.563 16.114 14.523 16.131 C 14.484 16.149 14.445 16.168 14.407 16.189 C 14.368 16.21 14.331 16.232 14.295 16.256 C 14.259 16.28 14.223 16.306 14.189 16.333 C 14.155 16.36 14.122 16.388 14.09 16.418 C 14.058 16.447 14.027 16.478 13.998 16.511 C 13.969 16.543 13.941 16.576 13.914 16.611 C 13.887 16.646 13.862 16.681 13.838 16.718 C 13.815 16.755 13.793 16.792 13.772 16.831 C 13.751 16.869 13.732 16.909 13.715 16.949 C 13.697 16.989 13.682 17.03 13.668 17.071 C 13.653 17.113 13.641 17.155 13.63 17.197 C 13.62 17.24 13.611 17.283 13.604 17.326 C 13.597 17.369 13.591 17.412 13.588 17.456 C 13.584 17.5 13.582 17.544 13.582 17.587 C 13.582 17.631 13.584 17.675 13.588 17.719 C 13.591 17.762 13.597 17.806 13.604 17.849 C 13.611 17.892 13.62 17.935 13.63 17.978 C 13.641 18.02 13.653 18.062 13.668 18.103 C 13.682 18.145 13.697 18.186 13.715 18.226 C 13.732 18.266 13.751 18.305 13.772 18.344 C 13.793 18.382 13.815 18.42 13.838 18.457 C 13.862 18.493 13.887 18.529 13.914 18.564 C 13.941 18.598 13.969 18.632 13.998 18.664 C 14.027 18.696 14.058 18.727 14.09 18.757 C 14.122 18.787 14.155 18.815 14.189 18.842 C 14.223 18.869 14.259 18.894 14.295 18.918 C 14.331 18.942 14.368 18.965 14.407 18.986 C 14.445 19.006 14.484 19.026 14.523 19.043 C 14.563 19.061 14.604 19.077 14.645 19.091 C 14.686 19.105 14.727 19.118 14.769 19.129 L 14.769 20.841 C 14.738 20.849 14.708 20.858 14.678 20.868 C 14.648 20.878 14.618 20.889 14.588 20.9 C 14.559 20.912 14.529 20.925 14.501 20.938 C 14.472 20.951 14.443 20.966 14.415 20.981 C 14.387 20.996 14.36 21.012 14.333 21.029 C 14.306 21.046 14.279 21.064 14.253 21.082 C 14.227 21.101 14.202 21.12 14.177 21.14 C 14.152 21.16 14.128 21.181 14.105 21.202 C 14.081 21.224 14.058 21.246 14.036 21.269 C 14.014 21.292 13.992 21.315 13.971 21.339 C 13.95 21.363 13.93 21.388 13.911 21.414 C 13.892 21.439 13.873 21.465 13.855 21.492 C 13.837 21.518 13.82 21.545 13.804 21.573 C 13.788 21.6 13.773 21.628 13.758 21.657 C 13.743 21.685 13.73 21.714 13.717 21.744 C 13.704 21.773 13.692 21.803 13.681 21.833 C 13.67 21.863 13.66 21.893 13.651 21.924 C 13.641 21.955 13.633 21.986 13.626 22.017 C 13.618 22.048 13.612 22.079 13.606 22.111 C 13.601 22.143 13.596 22.174 13.593 22.206 C 13.589 22.238 13.586 22.27 13.585 22.302 C 13.583 22.334 13.582 22.366 13.582 22.398 C 13.583 22.43 13.584 22.462 13.586 22.494 C 13.588 22.526 13.591 22.558 13.595 22.59 C 13.599 22.622 13.604 22.654 13.61 22.685 C 13.616 22.717 13.623 22.748 13.63 22.779 C 13.638 22.81 13.647 22.841 13.656 22.872 C 13.666 22.902 13.676 22.932 13.688 22.962 C 13.699 22.992 13.711 23.022 13.725 23.051 C 13.738 23.08 13.752 23.109 13.767 23.137 C 13.782 23.166 13.797 23.194 13.814 23.221 C 13.83 23.248 13.848 23.275 13.866 23.302 C 13.884 23.328 13.903 23.354 13.923 23.379 C 13.942 23.404 13.963 23.429 13.984 23.453 C 14.005 23.476 14.027 23.5 14.049 23.522 C 14.072 23.545 14.095 23.567 14.119 23.588 C 14.143 23.609 14.167 23.63 14.192 23.649 C 14.217 23.669 14.243 23.688 14.269 23.706 C 14.295 23.724 14.322 23.742 14.349 23.758 C 14.376 23.775 14.404 23.791 14.432 23.805 C 14.46 23.82 14.489 23.834 14.518 23.847 C 14.547 23.86 14.576 23.873 14.606 23.884 C 14.635 23.895 14.665 23.906 14.696 23.915 C 14.726 23.925 14.757 23.933 14.787 23.941 C 14.818 23.949 14.849 23.955 14.881 23.961 C 14.912 23.967 14.943 23.972 14.975 23.976 C 15.006 23.979 15.038 23.982 15.07 23.984 C 15.101 23.986 15.133 23.987 15.165 23.987 C 15.197 23.987 15.228 23.986 15.26 23.984 C 15.292 23.982 15.323 23.979 15.355 23.976 C 15.386 23.972 15.418 23.967 15.449 23.961 C 15.48 23.955 15.511 23.949 15.542 23.941 C 15.573 23.933 15.603 23.925 15.634 23.915 C 15.664 23.906 15.694 23.895 15.724 23.884 C 15.754 23.873 15.783 23.86 15.812 23.847 C 15.841 23.834 15.869 23.82 15.898 23.805 C 15.926 23.791 15.953 23.775 15.981 23.758 C 16.008 23.742 16.035 23.724 16.061 23.706 C 16.087 23.688 16.113 23.669 16.138 23.649 C 16.163 23.63 16.187 23.609 16.211 23.588 C 16.235 23.567 16.258 23.545 16.28 23.522 C 16.303 23.5 16.325 23.476 16.346 23.453 C 16.367 23.429 16.387 23.404 16.407 23.379 C 16.427 23.354 16.446 23.328 16.464 23.302 C 16.482 23.275 16.499 23.248 16.516 23.221 C 16.532 23.194 16.548 23.166 16.563 23.137 C 16.578 23.109 16.592 23.08 16.605 23.051 C 16.618 23.022 16.63 22.992 16.642 22.962 C 16.653 22.932 16.664 22.902 16.673 22.872 C 16.683 22.841 16.692 22.81 16.699 22.779 C 16.707 22.748 16.714 22.717 16.72 22.685 C 16.726 22.654 16.731 22.622 16.735 22.59 C 16.739 22.558 16.742 22.526 16.744 22.494 C 16.746 22.462 16.747 22.43 16.747 22.398 C 16.747 22.366 16.747 22.334 16.745 22.302 C 16.743 22.27 16.74 22.238 16.737 22.206 C 16.733 22.174 16.729 22.143 16.723 22.111 C 16.718 22.079 16.711 22.048 16.704 22.017 C 16.696 21.986 16.688 21.955 16.679 21.924 C 16.67 21.893 16.66 21.863 16.648 21.833 C 16.637 21.803 16.626 21.773 16.613 21.744 C 16.6 21.714 16.586 21.685 16.572 21.657 C 16.557 21.628 16.542 21.6 16.526 21.573 C 16.509 21.545 16.492 21.518 16.474 21.492 C 16.457 21.465 16.438 21.439 16.419 21.414 C 16.399 21.388 16.379 21.363 16.358 21.339 C 16.337 21.315 16.316 21.292 16.294 21.269 C 16.271 21.246 16.249 21.224 16.225 21.202 C 16.201 21.181 16.177 21.16 16.152 21.14 C 16.128 21.12 16.102 21.101 16.076 21.082 C 16.05 21.064 16.024 21.046 15.997 21.029 C 15.97 21.012 15.942 20.996 15.914 20.981 C 15.886 20.966 15.858 20.951 15.829 20.938 C 15.8 20.925 15.771 20.912 15.742 20.9 C 15.712 20.889 15.682 20.878 15.652 20.868 C 15.622 20.858 15.591 20.849 15.56 20.841 L 15.56 19.129 C 15.602 19.118 15.644 19.105 15.685 19.091 C 15.726 19.077 15.766 19.061 15.806 19.043 C 15.846 19.026 15.885 19.006 15.923 18.986 C 15.961 18.965 15.998 18.942 16.035 18.918 C 16.071 18.894 16.106 18.869 16.14 18.842 C 16.175 18.815 16.208 18.787 16.24 18.757 C 16.272 18.727 16.302 18.696 16.332 18.664 C 16.361 18.632 16.389 18.598 16.416 18.564 C 16.442 18.529 16.467 18.493 16.491 18.457 C 16.515 18.42 16.537 18.382 16.558 18.344 C 16.578 18.305 16.597 18.266 16.615 18.226 C 16.632 18.186 16.648 18.145 16.662 18.103 C 16.676 18.062 16.689 18.02 16.699 17.978 C 16.71 17.935 16.719 17.892 16.726 17.849 C 16.733 17.806 16.738 17.762 16.742 17.719 C 16.745 17.675 16.747 17.631 16.747 17.587 C 16.747 17.544 16.745 17.5 16.742 17.456 C 16.738 17.412 16.733 17.369 16.726 17.326 C 16.719 17.283 16.71 17.24 16.699 17.197 C 16.689 17.155 16.676 17.113 16.662 17.071 C 16.648 17.03 16.632 16.989 16.615 16.949 C 16.597 16.909 16.578 16.869 16.558 16.831 C 16.537 16.792 16.515 16.755 16.491 16.718 C 16.467 16.681 16.442 16.646 16.416 16.611 C 16.389 16.576 16.361 16.543 16.332 16.511 C 16.302 16.478 16.272 16.447 16.24 16.418 C 16.208 16.388 16.175 16.36 16.14 16.333 C 16.106 16.306 16.071 16.28 16.035 16.256 C 15.998 16.232 15.961 16.21 15.923 16.189 C 15.885 16.168 15.846 16.149 15.806 16.131 C 15.766 16.114 15.726 16.098 15.685 16.083 C 15.644 16.069 15.602 16.057 15.56 16.046 L 15.56 13.991 L 21.89 13.991 L 21.89 16.046 C 21.848 16.057 21.806 16.069 21.765 16.083 C 21.724 16.098 21.684 16.114 21.644 16.131 C 21.605 16.149 21.566 16.168 21.527 16.189 C 21.489 16.21 21.452 16.232 21.416 16.256 C 21.38 16.28 21.344 16.306 21.31 16.333 C 21.276 16.36 21.243 16.388 21.211 16.418 C 21.179 16.447 21.148 16.478 21.119 16.511 C 21.089 16.543 21.061 16.576 21.035 16.611 C 21.008 16.646 20.983 16.681 20.959 16.718 C 20.936 16.755 20.913 16.792 20.893 16.831 C 20.872 16.869 20.853 16.909 20.836 16.949 C 20.818 16.989 20.802 17.03 20.788 17.071 C 20.774 17.113 20.762 17.155 20.751 17.197 C 20.741 17.24 20.732 17.283 20.725 17.326 C 20.718 17.369 20.712 17.412 20.709 17.456 C 20.705 17.5 20.703 17.544 20.703 17.587 C 20.703 17.631 20.705 17.675 20.709 17.719 C 20.712 17.762 20.718 17.806 20.725 17.849 C 20.732 17.892 20.741 17.935 20.751 17.978 C 20.762 18.02 20.774 18.062 20.788 18.103 C 20.802 18.145 20.818 18.186 20.836 18.226 C 20.853 18.266 20.872 18.305 20.893 18.344 C 20.913 18.382 20.936 18.42 20.959 18.457 C 20.983 18.493 21.008 18.529 21.035 18.564 C 21.061 18.598 21.089 18.632 21.119 18.664 C 21.148 18.696 21.179 18.727 21.211 18.757 C 21.243 18.787 21.276 18.815 21.31 18.842 C 21.344 18.869 21.38 18.894 21.416 18.918 C 21.452 18.942 21.489 18.965 21.527 18.986 C 21.566 19.006 21.605 19.026 21.644 19.043 C 21.684 19.061 21.724 19.077 21.765 19.091 C 21.806 19.105 21.848 19.118 21.89 19.129 L 21.89 20.841 C 21.859 20.849 21.829 20.858 21.799 20.868 C 21.768 20.878 21.739 20.889 21.709 20.9 C 21.679 20.912 21.65 20.925 21.621 20.938 C 21.593 20.951 21.564 20.966 21.536 20.981 C 21.508 20.996 21.481 21.012 21.454 21.029 C 21.427 21.046 21.4 21.064 21.374 21.082 C 21.348 21.101 21.323 21.12 21.298 21.14 C 21.273 21.16 21.249 21.181 21.226 21.202 C 21.202 21.224 21.179 21.246 21.157 21.269 C 21.135 21.292 21.113 21.315 21.092 21.339 C 21.071 21.363 21.051 21.388 21.032 21.414 C 21.012 21.439 20.994 21.465 20.976 21.492 C 20.958 21.518 20.941 21.545 20.925 21.573 C 20.909 21.6 20.893 21.628 20.879 21.657 C 20.864 21.685 20.851 21.714 20.838 21.744 C 20.825 21.773 20.813 21.803 20.802 21.833 C 20.791 21.863 20.781 21.893 20.772 21.924 C 20.762 21.955 20.754 21.986 20.747 22.017 C 20.739 22.048 20.733 22.079 20.727 22.111 C 20.722 22.143 20.717 22.174 20.714 22.206 C 20.71 22.238 20.707 22.27 20.706 22.302 C 20.704 22.334 20.703 22.366 20.703 22.398 C 20.703 22.43 20.705 22.462 20.707 22.494 C 20.709 22.526 20.712 22.558 20.716 22.59 C 20.72 22.622 20.725 22.654 20.731 22.685 C 20.737 22.717 20.743 22.748 20.751 22.779 C 20.759 22.81 20.768 22.841 20.777 22.872 C 20.787 22.902 20.797 22.932 20.809 22.962 C 20.82 22.992 20.832 23.022 20.845 23.051 C 20.859 23.08 20.873 23.109 20.888 23.137 C 20.902 23.166 20.918 23.194 20.935 23.221 C 20.951 23.248 20.969 23.275 20.987 23.302 C 21.005 23.328 21.024 23.354 21.043 23.379 C 21.063 23.404 21.083 23.429 21.105 23.453 C 21.126 23.476 21.148 23.5 21.17 23.522 C 21.193 23.545 21.216 23.567 21.24 23.588 C 21.263 23.609 21.288 23.63 21.313 23.649 C 21.338 23.669 21.364 23.688 21.39 23.706 C 21.416 23.724 21.443 23.742 21.47 23.758 C 21.497 23.775 21.525 23.791 21.553 23.805 C 21.581 23.82 21.61 23.834 21.639 23.847 C 21.668 23.86 21.697 23.873 21.727 23.884 C 21.756 23.895 21.786 23.906 21.817 23.915 C 21.847 23.925 21.878 23.933 21.908 23.941 C 21.939 23.949 21.97 23.955 22.001 23.961 C 22.033 23.967 22.064 23.972 22.096 23.976 C 22.127 23.979 22.159 23.982 22.19 23.984 C 22.222 23.986 22.254 23.987 22.286 23.987 C 22.317 23.987 22.349 23.986 22.381 23.984 C 22.413 23.982 22.444 23.979 22.476 23.976 C 22.507 23.972 22.539 23.967 22.57 23.961 C 22.601 23.955 22.632 23.949 22.663 23.941 C 22.694 23.933 22.724 23.925 22.755 23.915 C 22.785 23.906 22.815 23.895 22.845 23.884 C 22.874 23.873 22.904 23.86 22.933 23.847 C 22.962 23.834 22.99 23.82 23.018 23.805 C 23.047 23.791 23.074 23.775 23.101 23.758 C 23.129 23.742 23.155 23.724 23.182 23.706 C 23.208 23.688 23.233 23.669 23.258 23.649 C 23.283 23.63 23.308 23.609 23.332 23.588 C 23.356 23.567 23.379 23.545 23.401 23.522 C 23.424 23.5 23.446 23.476 23.467 23.453 C 23.488 23.429 23.508 23.404 23.528 23.379 C 23.548 23.354 23.566 23.328 23.585 23.302 C 23.603 23.275 23.62 23.248 23.637 23.221 C 23.653 23.194 23.669 23.166 23.684 23.137 C 23.699 23.109 23.713 23.08 23.726 23.051 C 23.739 23.022 23.751 22.992 23.763 22.962 C 23.774 22.932 23.785 22.902 23.794 22.872 C 23.804 22.841 23.812 22.81 23.82 22.779 C 23.828 22.748 23.835 22.717 23.841 22.685 C 23.847 22.654 23.851 22.622 23.855 22.59 C 23.859 22.558 23.863 22.526 23.865 22.494 C 23.867 22.462 23.868 22.43 23.868 22.398 C 23.868 22.366 23.867 22.334 23.866 22.302 C 23.864 22.27 23.861 22.238 23.858 22.206 C 23.854 22.174 23.849 22.143 23.844 22.111 C 23.839 22.079 23.832 22.048 23.825 22.017 C 23.817 21.986 23.809 21.955 23.8 21.924 C 23.79 21.893 23.78 21.863 23.769 21.833 C 23.758 21.803 23.746 21.773 23.734 21.744 C 23.721 21.714 23.707 21.685 23.693 21.657 C 23.678 21.628 23.663 21.6 23.646 21.573 C 23.63 21.545 23.613 21.518 23.595 21.492 C 23.577 21.465 23.559 21.439 23.54 21.414 C 23.52 21.388 23.5 21.363 23.479 21.339 C 23.458 21.315 23.437 21.292 23.415 21.269 C 23.392 21.246 23.369 21.224 23.346 21.202 C 23.322 21.181 23.298 21.16 23.273 21.14 C 23.248 21.12 23.223 21.101 23.197 21.082 C 23.171 21.064 23.145 21.046 23.118 21.029 C 23.091 21.012 23.063 20.996 23.035 20.981 C 23.007 20.966 22.979 20.951 22.95 20.938 C 22.921 20.925 22.892 20.912 22.862 20.9 C 22.833 20.889 22.803 20.878 22.773 20.868 C 22.742 20.858 22.712 20.849 22.681 20.841 Z M 22.681 20.841" fill="currentColor" fill-rule="nonzero"/>
  </symbol>
</svg>
